<?xml version="1.0" encoding="UTF-8"?>
<svg width="627.65" height="402.78" version="1.1" viewBox="0 0 166.06635 106.56836" xmlns="http://www.w3.org/2000/svg">
 <circle transform="rotate(-90)" cx="-74.052" cy="114.58" r="0" fill="#fd5" style="paint-order:markers stroke fill"/>
 <path d="m4.54 1.6025c-2.5071 0.20474-4.54 2.0253-4.54 4.5408v84.132c0 6.8065 5.4798 12.286 12.286 12.286 0 0 47.127 4.0063 70.747 4.0063s70.747-4.0063 70.747-4.0063c6.8065 0 12.286-5.4798 12.286-12.286v-84.132c0-2.5155-2.0253-4.5408-4.5408-4.5408l-19.623-1.6025h-117.74z" fill="#333" stroke-linecap="round" stroke-linejoin="round" stroke-width="3.3268"/>
 <path d="m46.267 7.9732h73.533c2.3453 0 4.2333 1.8881 4.2333 4.2333v73.533c0 2.3453-1.8881 4.2333-4.2333 4.2333h-73.533c-2.3453 0-4.2333-1.8881-4.2333-4.2333v-73.533c0-2.3453 1.8881-4.2333 4.2333-4.2333z" fill="#1a1a1a" stroke-linecap="round" stroke-linejoin="round" stroke-width="2.4237"/>
 <rect x="48.119" y="14.059" width="69.829" height="69.829" fill="#4d4d4d" stroke-linecap="round" stroke-linejoin="round" stroke-width="2.064"/>
 <ellipse transform="rotate(45)" cx="133.42" cy="-71.712" rx="10.319" ry="20.637" fill="#1a1a1a"/>
 <g transform="matrix(1 0 0 -1 105.52 170)">
  <circle cx="46.263" cy="133.1" r="6.7352" fill="#4d4d4d"/>
  <path d="m40.723 134.82a5.8044 5.8044 0 0 0 5.5397 4.0912 5.8044 5.8044 0 0 0 1.0129 -0.0904 9.4761 9.4761 0 0 1 -6.5526 -4.0008z" fill="#fff"/>
 </g>
 <circle transform="scale(1,-1)" cx="138.32" cy="-50.367" r="6.7352" fill="#4d4d4d"/>
 <path d="m139.58 52.357h-2.5242l-0.39835 1.1405h-1.6227l2.3188-6.2603h1.9246l2.3188 6.2603h-1.6227zm-2.1217-1.1615h1.715l-0.85539-2.4907z" fill="none" stroke="#1a1a1a" stroke-width=".50497" style="font-feature-settings:normal;font-variant-caps:normal;font-variant-ligatures:normal;font-variant-numeric:normal"/>
 <path d="m151.71 36.193q0.38157 0 0.57865-0.16773t0.19708-0.49479q0-0.32287-0.19708-0.49059-0.19708-0.17192-0.57865-0.17192h-0.89313v1.325zm0.0545 2.7381q0.4864 0 0.7296-0.20546 0.2474-0.20547 0.2474-0.62058 0-0.40674-0.2432-0.60801-0.2432-0.20546-0.7338-0.20546h-0.94764v1.6395zm1.5011-2.2517q0.51994 0.15095 0.80507 0.55768 0.28514 0.40673 0.28514 0.99796 0 0.90571-0.6122 1.3502-0.61219 0.44447-1.8617 0.44447h-2.6794v-6.2603h2.4236q1.3041 0 1.8869 0.39416 0.58704 0.39415 0.58704 1.2621 0 0.45705-0.21385 0.77992-0.21385 0.31868-0.62058 0.47383z" fill="none" stroke="#1a1a1a" stroke-width=".50497" style="font-feature-settings:normal;font-variant-caps:normal;font-variant-ligatures:normal;font-variant-numeric:normal"/>
 <path d="m130.86 10.493q-0.45172 0-0.70067 0.33365-0.24896 0.33366-0.24896 0.93937 0 0.60315 0.24896 0.93681 0.24895 0.33365 0.70067 0.33365 0.45429 0 0.70325-0.33365 0.24896-0.33366 0.24896-0.93681 0-0.60571-0.24896-0.93937-0.24896-0.33365-0.70325-0.33365zm0-0.71608q0.92397 0 1.4476 0.52872 0.52358 0.52871 0.52358 1.4604 0 0.92911-0.52358 1.4578-0.52359 0.52872-1.4476 0.52872-0.9214 0-1.4476-0.52872-0.52358-0.52871-0.52358-1.4578 0-0.93167 0.52358-1.4604 0.52615-0.52872 1.4476-0.52872z" fill="none" stroke="#1a1a1a" stroke-width=".30909" style="font-feature-settings:normal;font-variant-caps:normal;font-variant-ligatures:normal;font-variant-numeric:normal"/>
 <path d="m133.58 9.8458h1.64q0.73148 0 1.1216 0.32595 0.39269 0.32339 0.39269 0.92398 0 0.60314-0.39269 0.9291-0.39012 0.32339-1.1216 0.32339h-0.65191v1.3295h-0.98814zm0.98814 0.71607v1.0703h0.54668q0.28746 0 0.44402-0.13859 0.15656-0.14117 0.15656-0.39782 0-0.25666-0.15656-0.39526t-0.44402-0.1386z" fill="none" stroke="#1a1a1a" stroke-width=".30909" style="font-feature-settings:normal;font-variant-caps:normal;font-variant-ligatures:normal;font-variant-numeric:normal"/>
 <path d="m136.97 9.8458h3.5316v0.74687h-1.2705v3.085h-0.98814v-3.085h-1.273z" fill="none" stroke="#1a1a1a" stroke-width=".30909" style="font-feature-settings:normal;font-variant-caps:normal;font-variant-ligatures:normal;font-variant-numeric:normal"/>
 <path d="m141.01 9.8458h0.98814v3.8319h-0.98814z" fill="none" stroke="#1a1a1a" stroke-width=".30909" style="font-feature-settings:normal;font-variant-caps:normal;font-variant-ligatures:normal;font-variant-numeric:normal"/>
 <path d="m144.72 10.493q-0.45172 0-0.70068 0.33365-0.24896 0.33366-0.24896 0.93937 0 0.60315 0.24896 0.93681 0.24896 0.33365 0.70068 0.33365 0.45428 0 0.70324-0.33365 0.24896-0.33366 0.24896-0.93681 0-0.60571-0.24896-0.93937-0.24896-0.33365-0.70324-0.33365zm0-0.71608q0.92397 0 1.4476 0.52872 0.52359 0.52871 0.52359 1.4604 0 0.92911-0.52359 1.4578-0.52358 0.52872-1.4476 0.52872-0.92141 0-1.4476-0.52872-0.52358-0.52871-0.52358-1.4578 0-0.93167 0.52358-1.4604 0.52615-0.52872 1.4476-0.52872z" fill="none" stroke="#1a1a1a" stroke-width=".30909" style="font-feature-settings:normal;font-variant-caps:normal;font-variant-ligatures:normal;font-variant-numeric:normal"/>
 <path d="m147.44 9.8458h1.1036l1.3936 2.6282v-2.6282h0.93681v3.8319h-1.1036l-1.3937-2.6282v2.6282h-0.93681z" fill="none" stroke="#1a1a1a" stroke-width=".30909" style="font-feature-settings:normal;font-variant-caps:normal;font-variant-ligatures:normal;font-variant-numeric:normal"/>
 <path d="m51.922 100.99h-1.5243l-0.91186-2.6539h-1.987v2.6539h-1.4971v-9.5269h3.2255q1.3202 0 2.0007 0.93908 0.6805 0.92547 0.6805 2.3001 0 0.66689-0.04083 1.0616-0.02722 0.39468-0.2722 1.0207-0.24498 0.62605-0.73493 1.048zm-4.4232-4.083h1.3746q0.42191 0 0.70772-0.16332 0.29942-0.16332 0.43552-0.35386 0.1361-0.20415 0.21776-0.55801 0.08166-0.36746 0.08166-0.57161 0.01361-0.20415 0.01361-0.55801 0-1.048-0.42191-1.3882-0.42191-0.34024-1.3066-0.34024h-1.1024z" fill="#fff" style="font-feature-settings:normal;font-variant-caps:normal;font-variant-ligatures:normal;font-variant-numeric:normal"/>
 <path d="m58.203 100.99h-4.5185v-9.5269h4.5457v1.4971h-3.0486v2.409h1.8646l-0.42191 1.429h-1.4426v2.8309h3.0214z" fill="#fff" style="font-feature-settings:normal;font-variant-caps:normal;font-variant-ligatures:normal;font-variant-numeric:normal"/>
 <path d="m62.406 100.99h-1.4971v-8.0162h-1.9598v-1.5107h5.4712v1.5107h-2.0143z" fill="#fff" style="font-feature-settings:normal;font-variant-caps:normal;font-variant-ligatures:normal;font-variant-numeric:normal"/>
 <path d="m71.407 100.99h-1.5243l-0.91187-2.6539h-1.987v2.6539h-1.4971v-9.5269h3.2255q1.3202 0 2.0007 0.93908 0.6805 0.92547 0.6805 2.3001 0 0.66689-0.04083 1.0616-0.02722 0.39468-0.2722 1.0207-0.24498 0.62605-0.73493 1.048zm-4.4232-4.083h1.3746q0.4219 0 0.70771-0.16332 0.29942-0.16332 0.43552-0.35386 0.1361-0.20415 0.21776-0.55801 0.08166-0.36746 0.08166-0.57161 0.01361-0.20415 0.01361-0.55801 0-1.048-0.42191-1.3882-0.42191-0.34024-1.3065-0.34024h-1.1024z" fill="#fff" style="font-feature-settings:normal;font-variant-caps:normal;font-variant-ligatures:normal;font-variant-numeric:normal"/>
 <path d="m78.202 94.101v4.3688q0 1.3746-0.84381 2.0279-0.8302 0.63966-2.0007 0.63966t-2.0279-0.63966q-0.84381-0.65328-0.84381-2.0279v-4.3824q0-1.4018 0.76215-2.1232 0.77576-0.72132 2.1231-0.72132t2.0823 0.76215q0.74854 0.76216 0.74854 2.0959zm-1.4971 4.083v-3.593q0-0.87103-0.2722-1.2929-0.25859-0.43551-1.0888-0.43551-0.8302 0-1.1024 0.4219-0.25859 0.4083-0.25859 1.2929v3.6338q0 0.65327 0.32664 1.0344 0.34025 0.36747 1.0344 0.36747 0.63966 0 0.99352-0.39469 0.36747-0.39469 0.36747-1.0344z" fill="#fff" style="font-feature-settings:normal;font-variant-caps:normal;font-variant-ligatures:normal;font-variant-numeric:normal"/>
 <path d="m89.351 100.99h-1.4154l-0.08166-0.10888q-0.70772 0.24497-1.2249 0.24497-1.1977 0-2.0415-0.68049-0.8302-0.6805-0.8302-2.0279v-4.2735q0-1.7421 1.1841-2.4634 0.61244-0.34025 1.4563-0.34025 0.08166 0 0.17693 0 0.95269 0.0408 1.7557 0.44913l-0.44913 1.3474q-0.65328-0.24498-1.2385-0.24498-0.65328 0-1.0207 0.24498-0.36747 0.23136-0.36747 0.88464v4.4232q0 0.65328 0.34025 0.91187 0.35386 0.25859 1.0207 0.25859 1.2385 0 1.2385-1.1568v-0.12248h-0.77576l-0.47635-1.429h2.7492z" fill="#fff" style="font-feature-settings:normal;font-variant-caps:normal;font-variant-ligatures:normal;font-variant-numeric:normal"/>
 <path d="m97.192 100.99h-1.7829l-0.55801-2.4906h-2.1912l-0.53079 2.4906h-1.6876l2.232-9.5269h2.1095zm-2.6948-4.083-0.77576-2.9397-0.70771 2.9397z" fill="#fff" style="font-feature-settings:normal;font-variant-caps:normal;font-variant-ligatures:normal;font-variant-numeric:normal"/>
 <path d="m105.69 100.99h-1.4971v-5.0357l-1.5924 5.0357h-1.1432l-1.5651-5.0221v5.0221h-1.4971v-9.5269h1.4971l2.1368 6.3014 2.164-6.3014h1.4971z" fill="#fff" style="font-feature-settings:normal;font-variant-caps:normal;font-variant-ligatures:normal;font-variant-numeric:normal"/>
 <path d="m112.35 100.99h-4.5185v-9.5269h4.5457v1.4971h-3.0486v2.409h1.8646l-0.42191 1.429h-1.4426v2.8309h3.0214z" fill="#fff" style="font-feature-settings:normal;font-variant-caps:normal;font-variant-ligatures:normal;font-variant-numeric:normal"/>
 <path d="m113.6 98.565 1.606-0.23136q0.068 0.59883 0.48996 0.9663 0.4219 0.36747 1.1024 0.36747 0.8302 0 1.2249-0.36747 0.39469-0.38108 0.39469-0.8166 0-0.54439-0.25859-0.93908-0.24498-0.39469-0.65328-0.63966-0.40829-0.25859-0.89825-0.46274-0.47635-0.20415-0.9663-0.42191-0.48996-0.23137-0.89826-0.50356-0.40829-0.28581-0.66688-0.74855-0.24498-0.46273-0.24498-1.0888 0-0.95269 0.78937-1.6468 0.80299-0.70771 2.2865-0.70771 1.1296 0 1.987 0.4083l-0.0817 0.24497q-0.0817 0.24498-0.20415 0.61245-0.12249 0.36747-0.19054 0.55801-0.92547-0.29942-1.4971-0.29942-0.77577 0-1.1432 0.2722-0.32663 0.24497-0.32663 0.61244 0 0.0408 0 0.0817 0.0408 0.35386 0.53078 0.65328 0.48996 0.29941 1.1568 0.58522 0.6805 0.28581 1.3338 0.66689 0.66689 0.36746 1.1296 1.048 0.46273 0.66688 0.46273 1.5788 0 1.2113-0.80298 2.0007-0.80299 0.78937-2.4498 0.78937-1.4835 0-2.3409-0.77576-0.84381-0.78937-0.87103-1.7965z" fill="#fff" style="font-feature-settings:normal;font-variant-caps:normal;font-variant-ligatures:normal;font-variant-numeric:normal"/>
 <rect x="5.4883" y="38.356" width="27.689" height="8.9803" ry="4.4901" fill="#0f0f0f"/>
 <rect x="5.4883" y="38.356" width="29.56" height="8.9803" ry="4.4901" fill="#0f0f0f"/>
 <rect x="5.4883" y="38.356" width="31.057" height="8.9803" ry="4.4901" fill="#1a1a1a"/>
 <rect transform="rotate(90)" x="27.318" y="-25.507" width="31.057" height="8.9803" ry="4.4901" fill="#1a1a1a"/>
 <path d="m24.164 34.748h-6.294l3.147-5.4508z" fill="#4d4d4d"/>
 <path d="m24.164 50.946h-6.294l3.147 5.4508z" fill="#4d4d4d"/>
 <path d="m29.116 45.994v-6.294l5.4508 3.147z" fill="#4d4d4d"/>
 <path d="m12.918 45.994v-6.294l-5.4508 3.147z" fill="#4d4d4d"/>
 <path d="m5.6428 18.002h1.64q0.73148 0 1.1216 0.32596 0.39269 0.32339 0.39269 0.92397 0 0.60315-0.39269 0.9291-0.39012 0.32339-1.1216 0.32339h-0.65191v1.3295h-0.98814zm0.98814 0.71608v1.0703h0.54668q0.28746 0 0.44402-0.13859 0.15656-0.14116 0.15656-0.39782t-0.15656-0.39526q-0.15656-0.13859-0.44402-0.13859z" fill="none" stroke="#1a1a1a" stroke-width=".30909" style="font-feature-settings:normal;font-variant-caps:normal;font-variant-ligatures:normal;font-variant-numeric:normal"/>
 <path d="m11.243 18.649q-0.45172 0-0.70068 0.33366-0.24896 0.33365-0.24896 0.93937 0 0.60314 0.24896 0.9368t0.70068 0.33366q0.45429 0 0.70324-0.33366t0.24896-0.9368q0-0.60572-0.24896-0.93937-0.24896-0.33366-0.70324-0.33366zm0-0.71608q0.92397 0 1.4476 0.52872t0.52358 1.4604q0 0.9291-0.52358 1.4578-0.52358 0.52871-1.4476 0.52871-0.9214 0-1.4476-0.52871-0.52358-0.52872-0.52358-1.4578 0-0.93167 0.52358-1.4604 0.52615-0.52872 1.4476-0.52872z" fill="none" stroke="#1a1a1a" stroke-width=".30909" style="font-feature-settings:normal;font-variant-caps:normal;font-variant-ligatures:normal;font-variant-numeric:normal"/>
 <path d="m13.633 18.002h0.94707l0.66218 2.7848 0.65704-2.7848h0.9522l0.65705 2.7848 0.66218-2.7848h0.93937l-0.90344 3.8319h-1.1396l-0.69554-2.9131-0.68785 2.9131h-1.1396z" fill="none" stroke="#1a1a1a" stroke-width=".30909" style="font-feature-settings:normal;font-variant-caps:normal;font-variant-ligatures:normal;font-variant-numeric:normal"/>
 <path d="m19.759 18.002h2.6667v0.74688h-1.6785v0.71351h1.5785v0.74688h-1.5785v0.87777h1.735v0.74687h-2.7231z" fill="none" stroke="#1a1a1a" stroke-width=".30909" style="font-feature-settings:normal;font-variant-caps:normal;font-variant-ligatures:normal;font-variant-numeric:normal"/>
 <path d="m24.756 19.701q0.31056 0 0.44402-0.1155 0.13603-0.11549 0.13603-0.37985 0-0.26179-0.13603-0.37472-0.13346-0.11293-0.44402-0.11293h-0.41579v0.983zm-0.41579 0.68271v1.4501h-0.98814v-3.8319h1.5092q0.75714 0 1.1088 0.25409 0.35419 0.25409 0.35419 0.80334 0 0.37986-0.18479 0.62369-0.18223 0.24382-0.55182 0.35932 0.20276 0.0462 0.36189 0.21046 0.16169 0.16169 0.32596 0.49278l0.53642 1.0882h-1.0523l-0.46712-0.9522q-0.14116-0.28746-0.28746-0.39269-0.14373-0.10523-0.38499-0.10523z" fill="none" stroke="#1a1a1a" stroke-width=".30909" style="font-feature-settings:normal;font-variant-caps:normal;font-variant-ligatures:normal;font-variant-numeric:normal"/>
 <path d="m132.78 48.654a5.8044 5.8044 0 0 1 5.5397 -4.0912 5.8044 5.8044 0 0 1 1.0129 0.0904 9.4761 9.4761 0 0 0 -6.5526 4.0008z" fill="#fff"/>
 <g transform="matrix(1 0 0 -1 105.52 119.73)">
  <circle cx="52.877" cy="107.97" r="2.9672" fill="#0f0f0f"/>
  <path d="m50.441 108.38a2.4711 2.4711 0 0 0 2.4365 2.0588 2.4711 2.4711 0 0 0 0.46767 -0.0465 3.9759 3.9759 0 0 1 -2.9042 -2.0123z" fill="#fff" opacity=".5"/>
 </g>
 <g transform="translate(105.52 -95.341)">
  <circle cx="-78.203" cy="107.1" r="2.2451" fill="#d45500"/>
  <circle cx="-78.898" cy="108.03" r=".62449" fill="#ff0"/>
  <circle cx="-77.277" cy="108" r=".29376" fill="#ff0"/>
 </g>
 <g transform="matrix(1 0 0 -1 105.52 119.73)">
  <rect x="-100.03" y="105" width="15.347" height="5.9343" ry="2.9672" fill="#0f0f0f"/>
  <path d="m-99.42 107.28c-0.06354 0.21973-0.09922 0.45172-0.09922 0.6935 0 1.3674 1.0874 2.4531 2.4551 2.4531h0.31678c-1.5252-0.24658-2.6712-1.5464-2.6727-3.1466z" fill="#fff" opacity=".5"/>
 </g>
 <circle cx="12.354" cy="75.343" r="1.637"/>
 <circle cx="16.686" cy="75.343" r="1.637"/>
 <circle cx="21.017" cy="75.343" r="1.637"/>
 <circle cx="25.348" cy="75.343" r="1.637"/>
 <circle cx="29.679" cy="75.343" r="1.637"/>
 <circle transform="rotate(90)" cx="79.674" cy="-12.354" r="1.637"/>
 <circle transform="rotate(90)" cx="84.005" cy="-12.354" r="1.637"/>
 <circle cx="16.685" cy="79.674" r="1.637"/>
 <circle cx="21.017" cy="79.674" r="1.637"/>
 <circle cx="25.348" cy="79.674" r="1.637"/>
 <circle cx="29.679" cy="79.674" r="1.637"/>
 <circle cx="16.685" cy="84.005" r="1.637"/>
 <circle cx="21.017" cy="84.005" r="1.637"/>
 <circle cx="25.348" cy="84.005" r="1.637"/>
 <circle cx="29.679" cy="84.005" r="1.637"/>
 <circle transform="rotate(90)" cx="88.336" cy="-12.354" r="1.637"/>
 <circle cx="29.679" cy="88.336" r="1.637"/>
 <path d="m31.293 88.064a1.637 1.637 0 0 1 -1.6137 1.372 1.637 1.637 0 0 1 -1.6137 -1.3643 1.637 1.637 0 0 0 -0.02308 0.26475 1.637 1.637 0 0 0 1.6367 1.6367 1.637 1.637 0 0 0 1.6367 -1.6367 1.637 1.637 0 0 0 -0.02307 -0.27244z" fill="#4d4d4d"/>
 <circle cx="25.348" cy="88.336" r="1.637"/>
 <path d="m26.961 88.064a1.637 1.637 0 0 1 -1.6137 1.372 1.637 1.637 0 0 1 -1.6137 -1.3643 1.637 1.637 0 0 0 -0.02307 0.26475 1.637 1.637 0 0 0 1.6367 1.6367 1.637 1.637 0 0 0 1.6367 -1.6367 1.637 1.637 0 0 0 -0.02307 -0.27244z" fill="#4d4d4d"/>
 <circle cx="21.017" cy="88.336" r="1.637"/>
 <path d="m22.63 88.064a1.637 1.637 0 0 1 -1.6137 1.372 1.637 1.637 0 0 1 -1.6137 -1.3643 1.637 1.637 0 0 0 -0.02308 0.26475 1.637 1.637 0 0 0 1.6367 1.6367 1.637 1.637 0 0 0 1.6367 -1.6367 1.637 1.637 0 0 0 -0.02307 -0.27244z" fill="#4d4d4d"/>
 <circle cx="16.685" cy="88.336" r="1.637"/>
 <path d="m18.299 88.064a1.637 1.637 0 0 1 -1.6137 1.372 1.637 1.637 0 0 1 -1.6137 -1.3643 1.637 1.637 0 0 0 -0.02307 0.26475 1.637 1.637 0 0 0 1.6367 1.6367 1.637 1.637 0 0 0 1.6367 -1.6367 1.637 1.637 0 0 0 -0.02308 -0.27244z" fill="#4d4d4d"/>
 <path d="m13.968 88.064a1.637 1.637 0 0 1 -1.6137 1.372 1.637 1.637 0 0 1 -1.6137 -1.3643 1.637 1.637 0 0 0 -0.02308 0.26475 1.637 1.637 0 0 0 1.6367 1.6367 1.637 1.637 0 0 0 1.6367 -1.6367 1.637 1.637 0 0 0 -0.02307 -0.27244z" fill="#4d4d4d"/>
 <path d="m31.293 83.733a1.637 1.637 0 0 1 -1.6137 1.372 1.637 1.637 0 0 1 -1.6137 -1.3643 1.637 1.637 0 0 0 -0.02308 0.26475 1.637 1.637 0 0 0 1.6367 1.6367 1.637 1.637 0 0 0 1.6367 -1.6367 1.637 1.637 0 0 0 -0.02307 -0.27244z" fill="#4d4d4d"/>
 <path d="m26.961 83.733a1.637 1.637 0 0 1 -1.6137 1.372 1.637 1.637 0 0 1 -1.6137 -1.3643 1.637 1.637 0 0 0 -0.02307 0.26475 1.637 1.637 0 0 0 1.6367 1.6367 1.637 1.637 0 0 0 1.6367 -1.6367 1.637 1.637 0 0 0 -0.02307 -0.27244z" fill="#4d4d4d"/>
 <path d="m22.63 83.733a1.637 1.637 0 0 1 -1.6137 1.372 1.637 1.637 0 0 1 -1.6137 -1.3643 1.637 1.637 0 0 0 -0.02308 0.26475 1.637 1.637 0 0 0 1.6367 1.6367 1.637 1.637 0 0 0 1.6367 -1.6367 1.637 1.637 0 0 0 -0.02307 -0.27244z" fill="#4d4d4d"/>
 <path d="m18.299 83.733a1.637 1.637 0 0 1 -1.6137 1.372 1.637 1.637 0 0 1 -1.6137 -1.3643 1.637 1.637 0 0 0 -0.02307 0.26475 1.637 1.637 0 0 0 1.6367 1.6367 1.637 1.637 0 0 0 1.6367 -1.6367 1.637 1.637 0 0 0 -0.02308 -0.27244z" fill="#4d4d4d"/>
 <path d="m13.968 83.733a1.637 1.637 0 0 1 -1.6137 1.372 1.637 1.637 0 0 1 -1.6137 -1.3643 1.637 1.637 0 0 0 -0.02308 0.26475 1.637 1.637 0 0 0 1.6367 1.6367 1.637 1.637 0 0 0 1.6367 -1.6367 1.637 1.637 0 0 0 -0.02307 -0.27244z" fill="#4d4d4d"/>
 <path d="m31.293 79.402a1.637 1.637 0 0 1 -1.6137 1.372 1.637 1.637 0 0 1 -1.6137 -1.3643 1.637 1.637 0 0 0 -0.02307 0.26476 1.637 1.637 0 0 0 1.6367 1.6367 1.637 1.637 0 0 0 1.6367 -1.6367 1.637 1.637 0 0 0 -0.02308 -0.27244z" fill="#4d4d4d"/>
 <path d="m26.962 79.402a1.637 1.637 0 0 1 -1.6137 1.372 1.637 1.637 0 0 1 -1.6137 -1.3643 1.637 1.637 0 0 0 -0.02308 0.26476 1.637 1.637 0 0 0 1.6367 1.6367 1.637 1.637 0 0 0 1.6367 -1.6367 1.637 1.637 0 0 0 -0.02307 -0.27244z" fill="#4d4d4d"/>
 <path d="m22.631 79.402a1.637 1.637 0 0 1 -1.6137 1.372 1.637 1.637 0 0 1 -1.6137 -1.3643 1.637 1.637 0 0 0 -0.02308 0.26476 1.637 1.637 0 0 0 1.6367 1.6367 1.637 1.637 0 0 0 1.6367 -1.6367 1.637 1.637 0 0 0 -0.02307 -0.27244z" fill="#4d4d4d"/>
 <path d="m18.299 79.402a1.637 1.637 0 0 1 -1.6137 1.372 1.637 1.637 0 0 1 -1.6137 -1.3643 1.637 1.637 0 0 0 -0.02308 0.26476 1.637 1.637 0 0 0 1.6367 1.6367 1.637 1.637 0 0 0 1.6367 -1.6367 1.637 1.637 0 0 0 -0.02307 -0.27244z" fill="#4d4d4d"/>
 <path d="m13.968 79.402a1.637 1.637 0 0 1 -1.6137 1.372 1.637 1.637 0 0 1 -1.6137 -1.3643 1.637 1.637 0 0 0 -0.02307 0.26476 1.637 1.637 0 0 0 1.6367 1.6367 1.637 1.637 0 0 0 1.6367 -1.6367 1.637 1.637 0 0 0 -0.02308 -0.27244z" fill="#4d4d4d"/>
 <path d="m31.293 75.07a1.637 1.637 0 0 1 -1.6137 1.372 1.637 1.637 0 0 1 -1.6137 -1.3643 1.637 1.637 0 0 0 -0.02307 0.26476 1.637 1.637 0 0 0 1.6367 1.6367 1.637 1.637 0 0 0 1.6367 -1.6367 1.637 1.637 0 0 0 -0.02308 -0.27244z" fill="#4d4d4d"/>
 <path d="m26.961 75.07a1.637 1.637 0 0 1 -1.6137 1.372 1.637 1.637 0 0 1 -1.6137 -1.3643 1.637 1.637 0 0 0 -0.02306 0.26476 1.637 1.637 0 0 0 1.6367 1.6367 1.637 1.637 0 0 0 1.6367 -1.6367 1.637 1.637 0 0 0 -0.02308 -0.27244z" fill="#4d4d4d"/>
 <path d="m22.63 75.07a1.637 1.637 0 0 1 -1.6137 1.372 1.637 1.637 0 0 1 -1.6137 -1.3643 1.637 1.637 0 0 0 -0.02307 0.26476 1.637 1.637 0 0 0 1.6367 1.6367 1.637 1.637 0 0 0 1.6367 -1.6367 1.637 1.637 0 0 0 -0.02307 -0.27244z" fill="#4d4d4d"/>
 <path d="m18.299 75.07a1.637 1.637 0 0 1 -1.6137 1.372 1.637 1.637 0 0 1 -1.6137 -1.3643 1.637 1.637 0 0 0 -0.02308 0.26476 1.637 1.637 0 0 0 1.6367 1.6367 1.637 1.637 0 0 0 1.6367 -1.6367 1.637 1.637 0 0 0 -0.02307 -0.27244z" fill="#4d4d4d"/>
 <path d="m13.968 75.07a1.637 1.637 0 0 1 -1.6137 1.372 1.637 1.637 0 0 1 -1.6137 -1.3643 1.637 1.637 0 0 0 -0.02307 0.26476 1.637 1.637 0 0 0 1.6367 1.6367 1.637 1.637 0 0 0 1.6367 -1.6367 1.637 1.637 0 0 0 -0.02308 -0.27244z" fill="#4d4d4d"/>
 <circle cx="21.017" cy="42.847" r="3.9688" fill="#4d4d4d"/>
 <circle cx="135.51" cy="69.038" r="1.8521" fill="#1a1a1a" stroke="#4d4d4d" stroke-linecap="round" stroke-linejoin="round" stroke-width=".52917"/>
 <circle cx="145.05" cy="69.038" r="1.8521" fill="#1a1a1a" stroke="#4d4d4d" stroke-linecap="round" stroke-linejoin="round" stroke-width=".52917"/>
 <circle cx="154.59" cy="69.038" r="1.8521" fill="#1a1a1a" stroke="#4d4d4d" stroke-linecap="round" stroke-linejoin="round" stroke-width=".52917"/>
 <circle transform="rotate(-90)" cx="-88.121" cy="135.51" r="1.8521" fill="#1a1a1a" stroke="#4d4d4d" stroke-linecap="round" stroke-linejoin="round" stroke-width=".52917"/>
 <circle transform="rotate(-90)" cx="-78.58" cy="135.51" r="1.8521" fill="#1a1a1a" stroke="#4d4d4d" stroke-linecap="round" stroke-linejoin="round" stroke-width=".52917"/>
 <circle cx="145.05" cy="78.58" r="1.8521" fill="#1a1a1a" stroke="#4d4d4d" stroke-linecap="round" stroke-linejoin="round" stroke-width=".52917"/>
 <circle cx="154.59" cy="78.58" r="1.8521" fill="#1a1a1a" stroke="#4d4d4d" stroke-linecap="round" stroke-linejoin="round" stroke-width=".52917"/>
 <circle cx="145.05" cy="88.121" r="1.8521" fill="#1a1a1a" stroke="#4d4d4d" stroke-linecap="round" stroke-linejoin="round" stroke-width=".52917"/>
 <circle cx="154.59" cy="88.121" r="1.8521" fill="#1a1a1a" stroke="#4d4d4d" stroke-linecap="round" stroke-linejoin="round" stroke-width=".52917"/>
 <rect x="48.119" y="14.059" width="69.829" height="69.829" stroke-linecap="round" stroke-linejoin="round" stroke-width="2.064"/>
 <path d="m66.564 19.102h0.58123v-2.0061l-0.63231 0.12681v-0.32408l0.62879-0.12681h0.35579v2.3302h0.58123v0.29942h-1.5147z" fill="#fff" style="font-feature-settings:normal;font-variant-caps:normal;font-variant-ligatures:normal;font-variant-numeric:normal"/>
 <path d="m68.727 16.772h0.35755v1.5975q0 0.42271 0.15323 0.60941 0.15323 0.18494 0.49669 0.18494 0.3417 0 0.49493-0.18494 0.15323-0.1867 0.15323-0.60941v-1.5975h0.35755v1.6415q0 0.51431-0.25539 0.77674-0.25363 0.26244-0.75032 0.26244-0.49845 0-0.75384-0.26244-0.25363-0.26243-0.25363-0.77674z" fill="#fff" style="font-feature-settings:normal;font-variant-caps:normal;font-variant-ligatures:normal;font-variant-numeric:normal"/>
 <path d="m71.765 17.064v0.9881h0.44738q0.24834 0 0.38397-0.12857 0.13562-0.12858 0.13562-0.36636 0-0.23601-0.13562-0.36459t-0.38397-0.12858zm-0.35578-0.29237h0.80316q0.44209 0 0.66754 0.20078 0.22721 0.19903 0.22721 0.58476 0 0.38925-0.22721 0.58828-0.22545 0.19903-0.66754 0.19903h-0.44738v1.0568h-0.35578z" fill="#fff" style="font-feature-settings:normal;font-variant-caps:normal;font-variant-ligatures:normal;font-variant-numeric:normal"/>
 <path d="m77.031 16.772h0.35579v1.0779h1.2928v-1.0779h0.35579v2.6296h-0.35579v-1.2523h-1.2928v1.2523h-0.35579z" fill="#fff" style="font-feature-settings:normal;font-variant-caps:normal;font-variant-ligatures:normal;font-variant-numeric:normal"/>
 <path d="m79.744 16.772h0.35579v2.6296h-0.35579z" fill="#fff" style="font-feature-settings:normal;font-variant-caps:normal;font-variant-ligatures:normal;font-variant-numeric:normal"/>
 <path d="m82.601 19.026v-0.70629h-0.58123v-0.29238h0.9335v1.129q-0.20607 0.14619-0.45442 0.22192-0.24835 0.074-0.53016 0.074-0.61646 0-0.9652-0.35931-0.34698-0.36107-0.34698-1.004 0-0.64464 0.34698-1.004 0.34874-0.36107 0.9652-0.36107 0.25715 0 0.48788 0.0634 0.23249 0.0634 0.428 0.1867v0.37868q-0.19727-0.16733-0.41919-0.25187-0.22193-0.0845-0.46675-0.0845-0.4826 0-0.72566 0.26948-0.2413 0.26948-0.2413 0.80316 0 0.53192 0.2413 0.8014 0.24306 0.26948 0.72566 0.26948 0.18846 0 0.33641-0.0317 0.14795-0.0335 0.26596-0.10216z" fill="#fff" style="font-feature-settings:normal;font-variant-caps:normal;font-variant-ligatures:normal;font-variant-numeric:normal"/>
 <path d="m83.605 16.772h0.35579v1.0779h1.2928v-1.0779h0.35578v2.6296h-0.35578v-1.2523h-1.2928v1.2523h-0.35579z" fill="#fff" style="font-feature-settings:normal;font-variant-caps:normal;font-variant-ligatures:normal;font-variant-numeric:normal"/>
 <path d="m89.042 16.858v0.34698q-0.20255-0.0969-0.38221-0.14443-0.17965-0.0476-0.34698-0.0476-0.29062 0-0.44914 0.11272-0.15676 0.11272-0.15676 0.32056 0 0.17437 0.10392 0.2642 0.10568 0.0881 0.39806 0.14266l0.21488 0.044q0.39806 0.0757 0.58652 0.26772 0.19022 0.19022 0.19022 0.51078 0 0.3822-0.25715 0.57947-0.25539 0.19727-0.75032 0.19727-0.1867 0-0.39806-0.0423-0.2096-0.0423-0.43504-0.12506v-0.36635q0.21664 0.12153 0.42448 0.18318 0.20784 0.0616 0.40863 0.0616 0.30471 0 0.47027-0.11977t0.16556-0.34169q0-0.19375-0.11977-0.30295-0.11801-0.1092-0.38925-0.1638l-0.21664-0.0423q-0.39806-0.0793-0.57595-0.24835-0.17789-0.16909-0.17789-0.47027 0-0.34874 0.24482-0.54953 0.24658-0.20079 0.67811-0.20079 0.18494 0 0.37692 0.0335t0.39277 0.1004z" fill="#fff" style="font-feature-settings:normal;font-variant-caps:normal;font-variant-ligatures:normal;font-variant-numeric:normal"/>
 <path d="m91.724 16.974v0.37516q-0.17965-0.16733-0.38397-0.25011-0.20255-0.0828-0.43152-0.0828-0.4509 0-0.69044 0.27652-0.23954 0.27477-0.23954 0.79612 0 0.51959 0.23954 0.79611 0.23954 0.27477 0.69044 0.27477 0.22897 0 0.43152-0.0828 0.20431-0.0828 0.38397-0.25011v0.37164q-0.1867 0.12681-0.3963 0.19022-0.20784 0.0634-0.44033 0.0634-0.59709 0-0.94054-0.36459-0.34346-0.36636-0.34346-0.99867 0-0.63407 0.34346-0.99867 0.34346-0.36635 0.94054-0.36635 0.23602 0 0.44385 0.0634 0.2096 0.0616 0.39277 0.1867z" fill="#fff" style="font-feature-settings:normal;font-variant-caps:normal;font-variant-ligatures:normal;font-variant-numeric:normal"/>
 <path d="m93.345 17.013q-0.38749 0-0.61646 0.28885-0.22721 0.28886-0.22721 0.78731 0 0.49669 0.22721 0.78555 0.22897 0.28885 0.61646 0.28885t0.61294-0.28885q0.22721-0.28886 0.22721-0.78555 0-0.49845-0.22721-0.78731-0.22545-0.28885-0.61294-0.28885zm0-0.28886q0.55305 0 0.88418 0.37164 0.33113 0.36987 0.33113 0.99338 0 0.62174-0.33113 0.99338-0.33113 0.36988-0.88418 0.36988-0.55482 0-0.8877-0.36988-0.33113-0.36987-0.33113-0.99338t0.33113-0.99338q0.33289-0.37164 0.8877-0.37164z" fill="#fff" style="font-feature-settings:normal;font-variant-caps:normal;font-variant-ligatures:normal;font-variant-numeric:normal"/>
 <path d="m96.364 18.169q0.11449 0.0387 0.22192 0.16556 0.1092 0.12682 0.2184 0.34874l0.36107 0.71862h-0.3822l-0.33641-0.67458q-0.13034-0.2642-0.25363-0.35051-0.12153-0.0863-0.33289-0.0863h-0.38749v1.1114h-0.35579v-2.6296h0.80316q0.4509 0 0.67282 0.18846t0.22193 0.5689q0 0.24835-0.11625 0.41215-0.11448 0.1638-0.33465 0.22721zm-0.89123-1.1044v0.9335h0.44737q0.25715 0 0.38749-0.11801 0.1321-0.11977 0.1321-0.3505t-0.1321-0.34698q-0.13034-0.11801-0.38749-0.11801z" fill="#fff" style="font-feature-settings:normal;font-variant-caps:normal;font-variant-ligatures:normal;font-variant-numeric:normal"/>
 <path d="m97.625 16.772h1.6627v0.29942h-1.3069v0.7785h1.2523v0.29942h-1.2523v0.95288h1.3386v0.29942h-1.6944z" fill="#fff" style="font-feature-settings:normal;font-variant-caps:normal;font-variant-ligatures:normal;font-variant-numeric:normal"/>
 <path d="m66.682 23.58v-0.32408q0.13386 0.0634 0.27124 0.0969t0.26948 0.0335q0.35226 0 0.5372-0.23602 0.1867-0.23778 0.21312-0.72038-0.10216 0.15148-0.25891 0.2325-0.15676 0.081-0.34698 0.081-0.39453 0-0.62527-0.23778-0.22897-0.23954-0.22897-0.65345 0-0.4051 0.23954-0.64992 0.23954-0.24483 0.6376-0.24483 0.45618 0 0.69572 0.3505 0.2413 0.34874 0.2413 1.0145 0 0.62175-0.2959 0.99338-0.29414 0.36988-0.79259 0.36988-0.13386 0-0.27124-0.0264t-0.28533-0.0793zm0.70805-1.1149q0.23954 0 0.37868-0.1638 0.1409-0.16381 0.1409-0.44914 0-0.28357-0.1409-0.44737-0.13914-0.16557-0.37868-0.16557t-0.38044 0.16557q-0.13914 0.1638-0.13914 0.44737 0 0.28533 0.13914 0.44914 0.1409 0.1638 0.38044 0.1638z" fill="#fff" style="font-feature-settings:normal;font-variant-caps:normal;font-variant-ligatures:normal;font-variant-numeric:normal"/>
 <path d="m69.275 23.335h1.2417v0.29942h-1.6697v-0.29942q0.20255-0.2096 0.55129-0.56186 0.3505-0.35403 0.44033-0.45618 0.17085-0.19199 0.23778-0.32408 0.06869-0.13386 0.06869-0.26244 0-0.2096-0.14795-0.3417-0.14619-0.13209-0.3822-0.13209-0.16732 0-0.35402 0.0581-0.18494 0.0581-0.3963 0.17613v-0.35931q0.21488-0.0863 0.40158-0.13033 0.1867-0.044 0.3417-0.044 0.40862 0 0.65169 0.20432 0.24306 0.20431 0.24306 0.546 0 0.16204-0.06165 0.30823-0.05988 0.14443-0.22016 0.3417-0.04403 0.0511-0.28005 0.2959-0.23602 0.24306-0.66578 0.68163z" fill="#fff" style="font-feature-settings:normal;font-variant-caps:normal;font-variant-ligatures:normal;font-variant-numeric:normal"/>
 <path d="m71.175 21.005h1.6909v0.15147l-0.95463 2.4782h-0.37164l0.89827-2.3302h-1.2629z" fill="#fff" style="font-feature-settings:normal;font-variant-caps:normal;font-variant-ligatures:normal;font-variant-numeric:normal"/>
 <path d="m86.706 23.335h1.2417v0.29942h-1.6697v-0.29942q0.20255-0.2096 0.55129-0.56186 0.3505-0.35403 0.44033-0.45618 0.17085-0.19199 0.23778-0.32408 0.06869-0.13386 0.06869-0.26244 0-0.2096-0.14795-0.3417-0.14619-0.13209-0.3822-0.13209-0.16733 0-0.35402 0.0581-0.18494 0.0581-0.3963 0.17613v-0.35931q0.21488-0.0863 0.40158-0.13033 0.1867-0.044 0.3417-0.044 0.40862 0 0.65169 0.20432 0.24306 0.20431 0.24306 0.546 0 0.16204-0.06165 0.30823-0.05988 0.14443-0.22016 0.3417-0.04403 0.0511-0.28005 0.2959-0.23602 0.24306-0.66578 0.68163z" fill="#fff" style="font-feature-settings:normal;font-variant-caps:normal;font-variant-ligatures:normal;font-variant-numeric:normal"/>
 <path d="m88.607 21.005h1.6909v0.15147l-0.95463 2.4782h-0.37164l0.89827-2.3302h-1.2629z" fill="#fff" style="font-feature-settings:normal;font-variant-caps:normal;font-variant-ligatures:normal;font-variant-numeric:normal"/>
 <path d="m91.754 22.386q-0.25363 0-0.39982 0.13562-0.14443 0.13562-0.14443 0.3734t0.14443 0.3734q0.14619 0.13562 0.39982 0.13562t0.39982-0.13562q0.14619-0.13738 0.14619-0.3734 0-0.23778-0.14619-0.3734-0.14443-0.13562-0.39982-0.13562zm-0.35579-0.15147q-0.22897-0.0564-0.35755-0.21312-0.12681-0.15676-0.12681-0.38221 0-0.31527 0.22369-0.49845 0.22545-0.18318 0.61646-0.18318 0.39277 0 0.61646 0.18318t0.22369 0.49845q0 0.22545-0.12858 0.38221-0.12682 0.15675-0.35402 0.21312 0.25715 0.0599 0.39982 0.23425 0.14443 0.17437 0.14443 0.42624 0 0.38221-0.23425 0.58652-0.23249 0.20431-0.66754 0.20431t-0.6693-0.20431q-0.23249-0.20431-0.23249-0.58652 0-0.25187 0.14443-0.42624t0.40158-0.23425zm-0.13034-0.56186q0 0.20431 0.12682 0.31879 0.12858 0.11449 0.35931 0.11449 0.22897 0 0.35755-0.11449 0.13034-0.11448 0.13034-0.31879 0-0.20432-0.13034-0.3188-0.12858-0.11449-0.35755-0.11449-0.23073 0-0.35931 0.11449-0.12682 0.11448-0.12682 0.3188z" fill="#fff" style="font-feature-settings:normal;font-variant-caps:normal;font-variant-ligatures:normal;font-variant-numeric:normal"/>
 <path d="m94.368 22.217q0.25539 0.0546 0.39806 0.22721 0.14443 0.17261 0.14443 0.42624 0 0.38925-0.26772 0.60237t-0.76089 0.21312q-0.16556 0-0.3417-0.0335-0.17437-0.0317-0.36107-0.0969v-0.34345q0.14795 0.0863 0.32408 0.13033 0.17613 0.044 0.36812 0.044 0.33465 0 0.50902-0.1321 0.17613-0.1321 0.17613-0.38397 0-0.23249-0.1638-0.36283-0.16204-0.1321-0.45266-0.1321h-0.30647v-0.29238h0.32056q0.26244 0 0.40158-0.10391 0.13914-0.10568 0.13914-0.30295 0-0.20255-0.14443-0.30999-0.14267-0.1092-0.41039-0.1092-0.14619 0-0.31351 0.0317-0.16733 0.0317-0.36812 0.0986v-0.31703q0.20255-0.0564 0.37868-0.0846 0.17789-0.0282 0.33465-0.0282 0.4051 0 0.64112 0.18494 0.23602 0.18318 0.23602 0.49669 0 0.2184-0.12505 0.36988-0.12505 0.14971-0.35578 0.20783z" fill="#fff" style="font-feature-settings:normal;font-variant-caps:normal;font-variant-ligatures:normal;font-variant-numeric:normal"/>
 <path d="m96.564 21.315-0.89827 1.4038h0.89827zm-0.09335-0.30999h0.44737v1.7138h0.37516v0.2959h-0.37516v0.61998h-0.35402v-0.61998h-1.1871v-0.34346z" fill="#fff" style="font-feature-settings:normal;font-variant-caps:normal;font-variant-ligatures:normal;font-variant-numeric:normal"/>
 <path d="m98.645 21.239q-0.27476 0-0.41391 0.27125-0.13738 0.26948-0.13738 0.81196 0 0.54073 0.13738 0.81197 0.13914 0.26948 0.41391 0.26948 0.27653 0 0.41391-0.26948 0.13914-0.27124 0.13914-0.81197 0-0.54248-0.13914-0.81196-0.13738-0.27125-0.41391-0.27125zm0-0.28181q0.44209 0 0.67458 0.3505 0.23425 0.34874 0.23425 1.0145 0 0.66402-0.23425 1.0145-0.23249 0.34874-0.67458 0.34874t-0.67634-0.34874q-0.23249-0.3505-0.23249-1.0145 0-0.66578 0.23249-1.0145 0.23426-0.3505 0.67634-0.3505z" fill="#fff" style="font-feature-settings:normal;font-variant-caps:normal;font-variant-ligatures:normal;font-variant-numeric:normal"/>
 <path d="m52.138 25.926c-1.8638 0-3.362 1.5097-3.3715 3.3735l-0.06954 13.72c-0.0094 1.8638 1.5077 3.3715 3.3715 3.3715v0.0324h6.558c1.5768 0 2.8381 1.2532 2.8538 2.826h0.0015v0.54092c0 1.5868-1.2686 2.8554-2.8554 2.8554h-10.578v0.51663h10.578c1.8638 0 3.371-1.5082 3.371-3.372v-0.54092h-0.0015c-0.0159-1.8501-1.5156-3.3426-3.3695-3.3426h-3.2663v-0.0324h-3.2222c-1.5868 0-2.8554-1.2681-2.8554-2.8549v-13.72c0-1.5868 1.2686-2.8569 2.8554-2.8569h61.631c1.5868 0 2.8554 1.2701 2.8554 2.8569v13.72c0 1.5868-1.2686 2.8549-2.8554 2.8549h-3.3563v0.0324h-2.9743c-1.8539 0-3.3536 1.4925-3.3695 3.3426h-2e-3v0.54092c0 1.8638 1.5072 3.372 3.371 3.372h10.509l0.0957-0.51663h-10.604c-1.5868 0-2.8476-1.2686-2.8554-2.8554v-0.54092h2e-3c0.0157-1.5729 1.277-2.826 2.8538-2.826h6.4257v-0.0324h5.1e-4c1.8638 0 3.2758-1.5077 3.2758-3.3715v-13.72c0-1.8638-1.5077-3.3735-3.3715-3.3735zm-4.0197 30.751v0.51662h10.508c1.5768 0 2.8381 1.2532 2.8538 2.826h0.0015v0.54092c0 1.5868-1.2686 2.8554-2.8554 2.8554h-6.4885c-1.8638 0-3.3715 1.5082-3.3715 3.372v8.5403c0 1.8638 1.5077 3.3715 3.3715 3.3715h61.631c1.8638 0 3.3715-1.5077 3.3715-3.3715v-8.5403c0-1.8638-1.5077-3.372-3.3715-3.372h-6.3306c-1.5868 0-2.8476-1.2686-2.8554-2.8554v-0.54092h2e-3c0.0157-1.5729 1.277-2.826 2.8538-2.826h10.509v-0.51662h-10.509c-1.8539 0-3.3536 1.4925-3.3695 3.3426h-2e-3v0.54092c0 1.8638 1.5072 3.372 3.371 3.372h6.3306c1.5868 0 2.8554 1.2686 2.8554 2.8554v8.5403c0 1.5868-1.2686 2.8554-2.8554 2.8554h-61.631c-1.5868 0-2.8554-1.2686-2.8554-2.8554v-8.5403c0-1.5868 1.2686-2.8554 2.8554-2.8554h6.4885c1.8638 0 3.2799-1.5104 3.371-3.372v-0.54092h-0.0015c-0.01591-1.8501-1.5156-3.3426-3.3695-3.3426z" color="#000000" color-rendering="auto" dominant-baseline="auto" fill="#00a" image-rendering="auto" shape-rendering="auto" solid-color="#000000" style="font-feature-settings:normal;font-variant-alternates:normal;font-variant-caps:normal;font-variant-ligatures:normal;font-variant-numeric:normal;font-variant-position:normal;isolation:auto;mix-blend-mode:normal;shape-padding:0;text-decoration-color:#000000;text-decoration-line:none;text-decoration-style:solid;text-indent:0;text-orientation:mixed;text-transform:none;white-space:normal"/>
 <path d="m55.251 29.321c-0.94762 0-1.7188 0.77113-1.7188 1.7188v3.7031c0 0.94762 0.77113 1.7188 1.7188 1.7188h5.0273c0.94762 0 1.7188-0.77113 1.7188-1.7188v-3.7031c0-0.94762-0.77113-1.7188-1.7188-1.7188zm0 0.52734h5.0273c0.66475 0 1.1914 0.52666 1.1914 1.1914v3.7031c0 0.66475-0.52666 1.1934-1.1914 1.1934h-5.0273c-0.66475 0-1.1914-0.5286-1.1914-1.1934v-3.7031c0-0.66475 0.52666-1.1914 1.1914-1.1914z" color="#000000" color-rendering="auto" dominant-baseline="auto" fill="#00a" image-rendering="auto" shape-rendering="auto" solid-color="#000000" style="font-feature-settings:normal;font-variant-alternates:normal;font-variant-caps:normal;font-variant-ligatures:normal;font-variant-numeric:normal;font-variant-position:normal;isolation:auto;mix-blend-mode:normal;shape-padding:0;text-decoration-color:#000000;text-decoration-line:none;text-decoration-style:solid;text-indent:0;text-orientation:mixed;text-transform:none;white-space:normal"/>
 <path d="m105.79 29.321c-0.94762 0-1.7188 0.77113-1.7188 1.7188v3.7031c0 0.94762 0.77113 1.7188 1.7188 1.7188h5.0254c0.94762 0 1.7188-0.77113 1.7188-1.7188v-3.7031c0-0.94762-0.77113-1.7188-1.7188-1.7188zm0 0.52734h5.0254c0.66475 0 1.1934 0.52666 1.1934 1.1914v3.7031c0 0.66475-0.52861 1.1934-1.1934 1.1934h-5.0254c-0.66475 0-1.1934-0.5286-1.1934-1.1934v-3.7031c0-0.66475 0.52861-1.1914 1.1934-1.1914z" color="#000000" color-rendering="auto" dominant-baseline="auto" fill="#00a" image-rendering="auto" shape-rendering="auto" solid-color="#000000" style="font-feature-settings:normal;font-variant-alternates:normal;font-variant-caps:normal;font-variant-ligatures:normal;font-variant-numeric:normal;font-variant-position:normal;isolation:auto;mix-blend-mode:normal;shape-padding:0;text-decoration-color:#000000;text-decoration-line:none;text-decoration-style:solid;text-indent:0;text-orientation:mixed;text-transform:none;white-space:normal"/>
 <path d="m87.001 29.321c-0.94762 0-1.7188 0.77113-1.7188 1.7188v3.7031c0 0.94762 0.77113 1.7188 1.7188 1.7188h10.85c0.94762 0 1.7188-0.77113 1.7188-1.7188v-3.7031c0-0.94762-0.77113-1.7188-1.7188-1.7188zm0 0.52734h10.85c0.66475 0 1.1914 0.52666 1.1914 1.1914v3.7031c0 0.66475-0.52666 1.1934-1.1914 1.1934h-10.85c-0.66475 0-1.1914-0.5286-1.1914-1.1934v-3.7031c0-0.66475 0.52666-1.1914 1.1914-1.1914z" color="#000000" color-rendering="auto" dominant-baseline="auto" fill="#00a" image-rendering="auto" shape-rendering="auto" solid-color="#000000" style="font-feature-settings:normal;font-variant-alternates:normal;font-variant-caps:normal;font-variant-ligatures:normal;font-variant-numeric:normal;font-variant-position:normal;isolation:auto;mix-blend-mode:normal;shape-padding:0;text-decoration-color:#000000;text-decoration-line:none;text-decoration-style:solid;text-indent:0;text-orientation:mixed;text-transform:none;white-space:normal"/>
 <path d="m68.216 29.321c-0.94762 0-1.7188 0.77113-1.7188 1.7188v3.7031c0 0.94762 0.77113 1.7188 1.7188 1.7188h10.848c0.94762 0 1.7188-0.77113 1.7188-1.7188v-3.7031c0-0.94762-0.77113-1.7188-1.7188-1.7188zm0 0.52734h10.848c0.66475 0 1.1934 0.52666 1.1934 1.1914v3.7031c0 0.66475-0.52861 1.1934-1.1934 1.1934h-10.848c-0.66475 0-1.1914-0.5286-1.1914-1.1934v-3.7031c0-0.66475 0.52666-1.1914 1.1914-1.1914z" color="#000000" color-rendering="auto" dominant-baseline="auto" fill="#00a" image-rendering="auto" shape-rendering="auto" solid-color="#000000" style="font-feature-settings:normal;font-variant-alternates:normal;font-variant-caps:normal;font-variant-ligatures:normal;font-variant-numeric:normal;font-variant-position:normal;isolation:auto;mix-blend-mode:normal;shape-padding:0;text-decoration-color:#000000;text-decoration-line:none;text-decoration-style:solid;text-indent:0;text-orientation:mixed;text-transform:none;white-space:normal"/>
 <path d="m55.327 39.452c-1.0322 0-1.873 0.83887-1.873 1.8711 0 1.0322 0.84082 1.8711 1.873 1.8711h4.877c1.0322 0 1.8711-0.83887 1.8711-1.8711 0-1.0322-0.83887-1.8711-1.8711-1.8711zm0 0.52539h4.877c0.74936 0 1.3438 0.59634 1.3438 1.3457s-0.59439 1.3438-1.3438 1.3438h-4.877c-0.74936 0-1.3457-0.59439-1.3457-1.3438s0.59634-1.3457 1.3457-1.3457z" color="#000000" color-rendering="auto" dominant-baseline="auto" fill="#00a" image-rendering="auto" shape-rendering="auto" solid-color="#000000" style="font-feature-settings:normal;font-variant-alternates:normal;font-variant-caps:normal;font-variant-ligatures:normal;font-variant-numeric:normal;font-variant-position:normal;isolation:auto;mix-blend-mode:normal;shape-padding:0;text-decoration-color:#000000;text-decoration-line:none;text-decoration-style:solid;text-indent:0;text-orientation:mixed;text-transform:none;white-space:normal"/>
 <path d="m74.336 39.253c-1.0322 0-1.8733 0.83898-1.8733 1.8712 0 1.0322 0.84104 1.8712 1.8733 1.8712h5.6973c0.66475 0 1.1911 0.52639 1.1911 1.1912v7.2559c0 1.0322 0.83897 1.8712 1.8712 1.8712s1.8733-0.83898 1.8733-1.8712v-7.2559c0-0.66476 0.52639-1.1912 1.1911-1.1912h5.5976c1.0322 0 1.8712-0.83897 1.8712-1.8712 0-1.0322-0.83898-1.8712-1.8712-1.8712zm0 0.52761h17.422c0.74936 0 1.3441 0.59424 1.3441 1.3436s-0.59474 1.3436-1.3441 1.3436h-5.5976c-0.94762 0-1.7188 0.77114-1.7188 1.7188v7.2559c0 0.74936-0.5963 1.3441-1.3457 1.3441s-1.3436-0.59475-1.3436-1.3441v-7.2559c0-0.94762-0.77114-1.7188-1.7188-1.7188h-5.6973c-0.74936 0-1.3457-0.59423-1.3457-1.3436 0-0.74935 0.59629-1.3436 1.3457-1.3436z" color="#000000" color-rendering="auto" dominant-baseline="auto" fill="#00a" image-rendering="auto" shape-rendering="auto" solid-color="#000000" style="font-feature-settings:normal;font-variant-alternates:normal;font-variant-caps:normal;font-variant-ligatures:normal;font-variant-numeric:normal;font-variant-position:normal;isolation:auto;mix-blend-mode:normal;shape-padding:0;text-decoration-color:#000000;text-decoration-line:none;text-decoration-style:solid;text-indent:0;text-orientation:mixed;text-transform:none;white-space:normal"/>
 <path d="m101.77 41.126c0-1.0322-0.83898-1.8733-1.8712-1.8733-1.0322 0-1.8712 0.84104-1.8712 1.8733v5.6973c0 0.66475-0.52639 1.1911-1.1911 1.1911h-7.2559c-1.0322 0-1.8712 0.83898-1.8712 1.8712 0 1.0322 0.83898 1.8733 1.8712 1.8733h7.2559c0.66476 0 1.1911 0.52639 1.1911 1.1911v5.5976c0 1.0322 0.83897 1.8712 1.8712 1.8712 1.0322 0 1.8712-0.83897 1.8712-1.8712zm-0.52762 0v17.422c0 0.74936-0.59423 1.3441-1.3436 1.3441-0.74936 0-1.3436-0.59474-1.3436-1.3441v-5.5976c0-0.94762-0.77114-1.7188-1.7188-1.7188h-7.2559c-0.74936 0-1.3441-0.5963-1.3441-1.3457s0.59474-1.3436 1.3441-1.3436h7.2559c0.94762 0 1.7188-0.77114 1.7188-1.7188v-5.6973c0-0.74936 0.59423-1.3456 1.3436-1.3456 0.74935 0 1.3436 0.59629 1.3436 1.3456z" color="#000000" color-rendering="auto" dominant-baseline="auto" fill="#00a" image-rendering="auto" shape-rendering="auto" solid-color="#000000" style="font-feature-settings:normal;font-variant-alternates:normal;font-variant-caps:normal;font-variant-ligatures:normal;font-variant-numeric:normal;font-variant-position:normal;isolation:auto;mix-blend-mode:normal;shape-padding:0;text-decoration-color:#000000;text-decoration-line:none;text-decoration-style:solid;text-indent:0;text-orientation:mixed;text-transform:none;white-space:normal"/>
 <path d="m64.327 41.126c0-1.0322 0.83898-1.8733 1.8712-1.8733 1.0322 0 1.8712 0.84104 1.8712 1.8733v5.6973c0 0.66475 0.52639 1.1911 1.1911 1.1911h7.2559c1.0322 0 1.8712 0.83898 1.8712 1.8712 0 1.0322-0.83898 1.8733-1.8712 1.8733h-7.2559c-0.66476 0-1.1911 0.52639-1.1911 1.1911v5.5976c0 1.0322-0.83897 1.8712-1.8712 1.8712-1.0322 0-1.8712-0.83897-1.8712-1.8712zm0.52762 0v17.422c0 0.74936 0.59424 1.3441 1.3436 1.3441s1.3436-0.59474 1.3436-1.3441v-5.5976c0-0.94762 0.77114-1.7188 1.7188-1.7188h7.2559c0.74936 0 1.3441-0.5963 1.3441-1.3457s-0.59474-1.3436-1.3441-1.3436h-7.2559c-0.94762 0-1.7188-0.77114-1.7188-1.7188v-5.6973c0-0.74936-0.59423-1.3456-1.3436-1.3456-0.74935 0-1.3436 0.59629-1.3436 1.3456z" color="#000000" color-rendering="auto" dominant-baseline="auto" fill="#00a" image-rendering="auto" shape-rendering="auto" solid-color="#000000" style="font-feature-settings:normal;font-variant-alternates:normal;font-variant-caps:normal;font-variant-ligatures:normal;font-variant-numeric:normal;font-variant-position:normal;isolation:auto;mix-blend-mode:normal;shape-padding:0;text-decoration-color:#000000;text-decoration-line:none;text-decoration-style:solid;text-indent:0;text-orientation:mixed;text-transform:none;white-space:normal"/>
 <path d="m72.657 56.849a0.21601 0.21391 0 0 0 -0.19336 0.21277v5.7327a0.21601 0.21391 0 0 0 0.21484 0.21274h20.734a0.21601 0.21391 0 0 0 0.2168 -0.21274v-5.7327a0.21601 0.21391 0 0 0 -0.2168 -0.21277h-20.734a0.21601 0.21391 0 0 0 -0.02148 0zm0.23828 0.42745h20.301v5.3033h-20.301z" color="#000000" color-rendering="auto" dominant-baseline="auto" fill="#00a" image-rendering="auto" shape-rendering="auto" solid-color="#000000" style="font-feature-settings:normal;font-variant-alternates:normal;font-variant-caps:normal;font-variant-ligatures:normal;font-variant-numeric:normal;font-variant-position:normal;isolation:auto;mix-blend-mode:normal;paint-order:markers stroke fill;shape-padding:0;text-decoration-color:#000000;text-decoration-line:none;text-decoration-style:solid;text-indent:0;text-orientation:mixed;text-transform:none;white-space:normal"/>
 <path d="m105.86 66.239c-1.0322 0-1.8711 0.83886-1.8711 1.8711s0.83887 1.873 1.8711 1.873h4.877c1.0322 0 1.8711-0.84082 1.8711-1.873s-0.83886-1.8711-1.8711-1.8711zm0 0.52734h4.877c0.74936 0 1.3438 0.59439 1.3438 1.3438s-0.59439 1.3457-1.3438 1.3457h-4.877c-0.74936 0-1.3457-0.59635-1.3457-1.3457s0.59635-1.3438 1.3457-1.3438z" color="#000000" color-rendering="auto" dominant-baseline="auto" fill="#00a" image-rendering="auto" shape-rendering="auto" solid-color="#000000" style="font-feature-settings:normal;font-variant-alternates:normal;font-variant-caps:normal;font-variant-ligatures:normal;font-variant-numeric:normal;font-variant-position:normal;isolation:auto;mix-blend-mode:normal;shape-padding:0;text-decoration-color:#000000;text-decoration-line:none;text-decoration-style:solid;text-indent:0;text-orientation:mixed;text-transform:none;white-space:normal"/>
 <path d="m89.652 72.193c-1.0322 0-1.8711 0.83886-1.8711 1.8711 0 1.0322 0.83886 1.873 1.8711 1.873h21.087c1.0322 0 1.8711-0.84082 1.8711-1.873 0-1.0322-0.83886-1.8711-1.8711-1.8711zm0 0.52735h21.087c0.74936 0 1.3438 0.59438 1.3438 1.3438 0 0.74935-0.59439 1.3457-1.3438 1.3457h-21.087c-0.74936 0-1.3438-0.59635-1.3438-1.3457 0-0.74937 0.59439-1.3438 1.3438-1.3438z" color="#000000" color-rendering="auto" dominant-baseline="auto" fill="#00a" image-rendering="auto" shape-rendering="auto" solid-color="#000000" style="font-feature-settings:normal;font-variant-alternates:normal;font-variant-caps:normal;font-variant-ligatures:normal;font-variant-numeric:normal;font-variant-position:normal;isolation:auto;mix-blend-mode:normal;shape-padding:0;text-decoration-color:#000000;text-decoration-line:none;text-decoration-style:solid;text-indent:0;text-orientation:mixed;text-transform:none;white-space:normal"/>
 <path d="m98.023 67.31c0 1.0322 0.83886 1.8711 1.8711 1.8711 1.0322 0 1.8711-0.83886 1.8711-1.8711v-2.4315c0-1.0322-0.83887-1.8711-1.8711-1.8711-1.0322 0-1.8711 0.83886-1.8711 1.8711zm0.52734 0v-2.4315c0-0.74936 0.59439-1.3438 1.3438-1.3438 0.74936 0 1.3437 0.59439 1.3437 1.3438v2.4315c0 0.74936-0.59439 1.3438-1.3437 1.3438-0.74936 0-1.3438-0.59439-1.3438-1.3438z" color="#000000" color-rendering="auto" dominant-baseline="auto" fill="#00a" image-rendering="auto" shape-rendering="auto" solid-color="#000000" style="font-feature-settings:normal;font-variant-alternates:normal;font-variant-caps:normal;font-variant-ligatures:normal;font-variant-numeric:normal;font-variant-position:normal;isolation:auto;mix-blend-mode:normal;shape-padding:0;text-decoration-color:#000000;text-decoration-line:none;text-decoration-style:solid;text-indent:0;text-orientation:mixed;text-transform:none;white-space:normal"/>
 <path d="m64.327 67.31c0 1.0322 0.83886 1.8711 1.8711 1.8711 1.0322 0 1.8711-0.83886 1.8711-1.8711v-2.4315c0-1.0322-0.83887-1.8711-1.8711-1.8711-1.0322 0-1.8711 0.83886-1.8711 1.8711zm0.52734 0v-2.4315c0-0.74936 0.59439-1.3438 1.3438-1.3438 0.74936 0 1.3438 0.59439 1.3438 1.3438v2.4315c0 0.74936-0.59439 1.3438-1.3438 1.3438-0.74936 0-1.3438-0.59439-1.3438-1.3438z" color="#000000" color-rendering="auto" dominant-baseline="auto" fill="#00a" image-rendering="auto" shape-rendering="auto" solid-color="#000000" style="font-feature-settings:normal;font-variant-alternates:normal;font-variant-caps:normal;font-variant-ligatures:normal;font-variant-numeric:normal;font-variant-position:normal;isolation:auto;mix-blend-mode:normal;shape-padding:0;text-decoration-color:#000000;text-decoration-line:none;text-decoration-style:solid;text-indent:0;text-orientation:mixed;text-transform:none;white-space:normal"/>
 <path d="m74.336 66.24c-1.0322 0-1.8733 0.83898-1.8733 1.8712 0 1.0322 0.84104 1.8712 1.8733 1.8712h5.6973c0.66475 0 1.1911 0.52639 1.1911 1.1912v1.6996c0 1.0322 0.83898 1.8712 1.8712 1.8712 1.0322 0 1.8733-0.83897 1.8733-1.8712v-1.6996c0-0.66476 0.52639-1.1912 1.1911-1.1912h5.5976c1.0322 0 1.8712-0.83897 1.8712-1.8712 0-1.0322-0.83897-1.8712-1.8712-1.8712zm0 0.52761h17.422c0.74936 0 1.3441 0.59424 1.3441 1.3436s-0.59474 1.3436-1.3441 1.3436h-5.5976c-0.94762 0-1.7188 0.77113-1.7188 1.7188v1.6996c0 0.74936-0.5963 1.3441-1.3457 1.3441s-1.3436-0.59474-1.3436-1.3441v-1.6996c0-0.94763-0.77114-1.7188-1.7188-1.7188h-5.6973c-0.74936 0-1.3456-0.59423-1.3456-1.3436 0-0.74935 0.59629-1.3436 1.3456-1.3436z" color="#000000" color-rendering="auto" dominant-baseline="auto" fill="#00a" image-rendering="auto" shape-rendering="auto" solid-color="#000000" style="font-feature-settings:normal;font-variant-alternates:normal;font-variant-caps:normal;font-variant-ligatures:normal;font-variant-numeric:normal;font-variant-position:normal;isolation:auto;mix-blend-mode:normal;shape-padding:0;text-decoration-color:#000000;text-decoration-line:none;text-decoration-style:solid;text-indent:0;text-orientation:mixed;text-transform:none;white-space:normal"/>
 <path d="m105.86 39.452c-1.0322 0-1.8711 0.83887-1.8711 1.8711 0 1.0322 0.83887 1.8711 1.8711 1.8711h4.877c1.0322 0 1.8711-0.83887 1.8711-1.8711 0-1.0322-0.83886-1.8711-1.8711-1.8711zm0 0.52539h4.877c0.74936 0 1.3438 0.59634 1.3438 1.3457s-0.59439 1.3438-1.3438 1.3438h-4.877c-0.74936 0-1.3457-0.59439-1.3457-1.3438s0.59635-1.3457 1.3457-1.3457z" color="#000000" color-rendering="auto" dominant-baseline="auto" fill="#00a" image-rendering="auto" shape-rendering="auto" solid-color="#000000" style="font-feature-settings:normal;font-variant-alternates:normal;font-variant-caps:normal;font-variant-ligatures:normal;font-variant-numeric:normal;font-variant-position:normal;isolation:auto;mix-blend-mode:normal;shape-padding:0;text-decoration-color:#000000;text-decoration-line:none;text-decoration-style:solid;text-indent:0;text-orientation:mixed;text-transform:none;white-space:normal"/>
 <rect transform="scale(-1,1)" x="-61.94" y="66.503" width="8.0935" height="3.2159" ry="1.6079" fill="none" stroke="#00a" stroke-linecap="round" stroke-linejoin="round" stroke-width=".52705"/>
 <path d="m55.454 72.193c-1.0322 0-1.8711 0.83886-1.8711 1.8711 0 1.0322 0.83886 1.873 1.8711 1.873h20.905c1.0322 0 1.8711-0.84082 1.8711-1.873 0-1.0322-0.83887-1.8711-1.8711-1.8711zm0 0.52735h20.905c0.74936 0 1.3438 0.59438 1.3438 1.3438 0 0.74935-0.59439 1.3457-1.3438 1.3457h-20.905c-0.74936 0-1.3438-0.59635-1.3438-1.3457 0-0.74937 0.59439-1.3438 1.3438-1.3438z" color="#000000" color-rendering="auto" dominant-baseline="auto" fill="#00a" image-rendering="auto" shape-rendering="auto" solid-color="#000000" style="font-feature-settings:normal;font-variant-alternates:normal;font-variant-caps:normal;font-variant-ligatures:normal;font-variant-numeric:normal;font-variant-position:normal;isolation:auto;mix-blend-mode:normal;shape-padding:0;text-decoration-color:#000000;text-decoration-line:none;text-decoration-style:solid;text-indent:0;text-orientation:mixed;text-transform:none;white-space:normal"/>
 <circle transform="rotate(-90)" cx="-32.92" cy="114.58" r="1.3187" fill="#fd5" style="paint-order:markers stroke fill"/>
 <circle cx="114.58" cy="27.882" r=".4867" fill="#fd5" style="paint-order:markers stroke fill"/>
 <circle cx="111.95" cy="27.882" r=".48674" fill="#fd5" style="paint-order:markers stroke fill"/>
 <circle cx="109.32" cy="27.882" r=".48674" fill="#fd5" style="paint-order:markers stroke fill"/>
 <circle cx="106.69" cy="27.882" r=".48674" fill="#fd5" style="paint-order:markers stroke fill"/>
 <circle cx="104.06" cy="27.882" r=".48674" fill="#fd5" style="paint-order:markers stroke fill"/>
 <circle cx="101.43" cy="27.882" r=".48674" fill="#fd5" style="paint-order:markers stroke fill"/>
 <circle cx="98.806" cy="27.882" r=".48674" fill="#fd5" style="paint-order:markers stroke fill"/>
 <circle cx="96.177" cy="27.882" r=".48674" fill="#fd5" style="paint-order:markers stroke fill"/>
 <circle cx="93.548" cy="27.882" r=".48674" fill="#fd5" style="paint-order:markers stroke fill"/>
 <circle cx="90.919" cy="27.882" r=".48674" fill="#fd5" style="paint-order:markers stroke fill"/>
 <circle cx="88.29" cy="27.882" r=".48674" fill="#fd5" style="paint-order:markers stroke fill"/>
 <circle cx="85.661" cy="27.882" r=".48674" fill="#fd5" style="paint-order:markers stroke fill"/>
 <circle cx="83.032" cy="27.882" r=".48674" fill="#fd5" style="paint-order:markers stroke fill"/>
 <circle cx="80.404" cy="27.882" r=".48674" fill="#fd5" style="paint-order:markers stroke fill"/>
 <circle cx="77.775" cy="27.882" r=".48674" fill="#fd5" style="paint-order:markers stroke fill"/>
 <circle cx="75.146" cy="27.882" r=".48674" fill="#fd5" style="paint-order:markers stroke fill"/>
 <circle cx="72.517" cy="27.882" r=".48674" fill="#fd5" style="paint-order:markers stroke fill"/>
 <circle cx="69.888" cy="27.882" r=".48674" fill="#fd5" style="paint-order:markers stroke fill"/>
 <circle cx="67.259" cy="27.882" r=".48674" fill="#fd5" style="paint-order:markers stroke fill"/>
 <circle cx="64.63" cy="27.882" r=".48674" fill="#fd5" style="paint-order:markers stroke fill"/>
 <circle cx="62.001" cy="27.882" r=".48674" fill="#fd5" style="paint-order:markers stroke fill"/>
 <circle cx="59.373" cy="27.882" r=".48674" fill="#fd5" style="paint-order:markers stroke fill"/>
 <circle cx="56.744" cy="27.882" r=".48674" fill="#fd5" style="paint-order:markers stroke fill"/>
 <circle cx="54.115" cy="27.882" r=".48674" fill="#fd5" style="paint-order:markers stroke fill"/>
 <circle cx="51.486" cy="27.882" r=".4867" fill="#fd5" style="paint-order:markers stroke fill"/>
 <circle cx="114.58" cy="37.957" r=".4867" fill="#fd5" style="paint-order:markers stroke fill"/>
 <circle cx="111.95" cy="37.957" r=".48674" fill="#fd5" style="paint-order:markers stroke fill"/>
 <circle cx="109.32" cy="37.957" r=".48674" fill="#fd5" style="paint-order:markers stroke fill"/>
 <circle cx="106.69" cy="37.957" r=".48674" fill="#fd5" style="paint-order:markers stroke fill"/>
 <circle cx="104.06" cy="37.957" r=".48674" fill="#fd5" style="paint-order:markers stroke fill"/>
 <circle cx="101.43" cy="37.957" r=".48674" fill="#fd5" style="paint-order:markers stroke fill"/>
 <circle cx="98.806" cy="37.957" r=".48674" fill="#fd5" style="paint-order:markers stroke fill"/>
 <circle cx="96.177" cy="37.957" r=".48674" fill="#fd5" style="paint-order:markers stroke fill"/>
 <circle cx="93.548" cy="37.957" r=".48674" fill="#fd5" style="paint-order:markers stroke fill"/>
 <circle cx="90.919" cy="37.957" r=".48674" fill="#fd5" style="paint-order:markers stroke fill"/>
 <circle cx="88.29" cy="37.957" r=".48674" fill="#fd5" style="paint-order:markers stroke fill"/>
 <circle cx="85.661" cy="37.957" r=".48674" fill="#fd5" style="paint-order:markers stroke fill"/>
 <circle cx="83.032" cy="37.957" r=".48674" fill="#fd5" style="paint-order:markers stroke fill"/>
 <circle cx="80.404" cy="37.957" r=".48674" fill="#fd5" style="paint-order:markers stroke fill"/>
 <circle cx="77.775" cy="37.957" r=".48674" fill="#fd5" style="paint-order:markers stroke fill"/>
 <circle cx="75.146" cy="37.957" r=".48674" fill="#fd5" style="paint-order:markers stroke fill"/>
 <circle cx="72.517" cy="37.957" r=".48674" fill="#fd5" style="paint-order:markers stroke fill"/>
 <circle cx="69.888" cy="37.957" r=".48674" fill="#fd5" style="paint-order:markers stroke fill"/>
 <circle cx="67.259" cy="37.957" r=".48674" fill="#fd5" style="paint-order:markers stroke fill"/>
 <circle cx="64.63" cy="37.957" r=".48674" fill="#fd5" style="paint-order:markers stroke fill"/>
 <circle cx="62.001" cy="37.957" r=".48674" fill="#fd5" style="paint-order:markers stroke fill"/>
 <circle cx="59.373" cy="37.957" r=".48674" fill="#fd5" style="paint-order:markers stroke fill"/>
 <circle cx="56.744" cy="37.957" r=".48674" fill="#fd5" style="paint-order:markers stroke fill"/>
 <circle cx="54.115" cy="37.957" r=".48674" fill="#fd5" style="paint-order:markers stroke fill"/>
 <circle cx="51.486" cy="37.957" r=".4867" fill="#fd5" style="paint-order:markers stroke fill"/>
 <circle transform="rotate(-90)" cx="-29.985" cy="114.58" r=".48674" fill="#fd5" style="paint-order:markers stroke fill"/>
 <circle transform="rotate(-90)" cx="-35.854" cy="114.58" r=".48674" fill="#fd5" style="paint-order:markers stroke fill"/>
 <g transform="translate(105.52 -96.204)" fill="#fd5">
  <circle transform="rotate(-90)" cx="-136.36" cy="9.058" r=".48674" style="paint-order:markers stroke fill"/>
  <circle transform="rotate(-90)" cx="-138.56" cy="9.058" r=".48674" style="paint-order:markers stroke fill"/>
 </g>
 <circle transform="rotate(-90)" cx="-29.985" cy="51.486" r=".48674" fill="#fd5" style="paint-order:markers stroke fill"/>
 <circle transform="rotate(-90)" cx="-32.92" cy="51.486" r="1.3187" fill="#fd5" style="paint-order:markers stroke fill"/>
 <circle transform="rotate(-90)" cx="-35.854" cy="51.486" r=".48674" fill="#fd5" style="paint-order:markers stroke fill"/>
 <circle transform="rotate(-90)" cx="-40.155" cy="51.486" r=".48674" fill="#fd5" style="paint-order:markers stroke fill"/>
 <circle transform="rotate(-90)" cx="-42.353" cy="51.486" r=".48674" fill="#fd5" style="paint-order:markers stroke fill"/>
 <circle cx="114.58" cy="44.551" r=".4867" fill="#fd5" style="paint-order:markers stroke fill"/>
 <circle cx="111.66" cy="44.551" r=".48674" fill="#fd5" style="paint-order:markers stroke fill"/>
 <circle cx="108.75" cy="44.551" r=".48674" fill="#fd5" style="paint-order:markers stroke fill"/>
 <circle cx="105.83" cy="44.551" r=".48674" fill="#fd5" style="paint-order:markers stroke fill"/>
 <circle cx="102.92" cy="44.551" r=".48674" fill="#fd5" style="paint-order:markers stroke fill"/>
 <circle cx="96.177" cy="44.551" r=".48674" fill="#fd5" style="paint-order:markers stroke fill"/>
 <circle cx="93.717" cy="44.551" r=".48674" fill="#fd5" style="paint-order:markers stroke fill"/>
 <circle cx="91.257" cy="44.551" r=".48674" fill="#fd5" style="paint-order:markers stroke fill"/>
 <circle cx="88.797" cy="44.551" r=".48674" fill="#fd5" style="paint-order:markers stroke fill"/>
 <circle cx="77.327" cy="44.551" r=".48674" fill="#fd5" style="paint-order:markers stroke fill"/>
 <circle cx="74.847" cy="44.551" r=".48674" fill="#fd5" style="paint-order:markers stroke fill"/>
 <circle cx="72.368" cy="44.551" r=".48674" fill="#fd5" style="paint-order:markers stroke fill"/>
 <circle cx="69.888" cy="44.551" r=".48674" fill="#fd5" style="paint-order:markers stroke fill"/>
 <circle cx="60.243" cy="44.551" r=".48674" fill="#fd5" style="paint-order:markers stroke fill"/>
 <circle cx="57.324" cy="44.551" r=".48674" fill="#fd5" style="paint-order:markers stroke fill"/>
 <circle cx="54.405" cy="44.551" r=".48674" fill="#fd5" style="paint-order:markers stroke fill"/>
 <circle cx="51.486" cy="44.551" r=".4867" fill="#fd5" style="paint-order:markers stroke fill"/>
 <circle cx="79.806" cy="44.551" r=".48674" fill="#fd5" style="paint-order:markers stroke fill"/>
 <circle cx="86.337" cy="44.551" r=".48674" fill="#fd5" style="paint-order:markers stroke fill"/>
 <circle cx="63.163" cy="44.551" r=".48674" fill="#fd5" style="paint-order:markers stroke fill"/>
 <circle transform="rotate(90)" cx="62.152" cy="-63.163" r=".48674" fill="#fd5" style="paint-order:markers stroke fill"/>
 <circle transform="rotate(90)" cx="59.219" cy="-63.163" r=".48674" fill="#fd5" style="paint-order:markers stroke fill"/>
 <circle transform="rotate(90)" cx="56.285" cy="-63.163" r=".48674" fill="#fd5" style="paint-order:markers stroke fill"/>
 <circle transform="rotate(90)" cx="53.351" cy="-63.163" r=".48674" fill="#fd5" style="paint-order:markers stroke fill"/>
 <circle transform="rotate(90)" cx="50.418" cy="-63.163" r=".48674" fill="#fd5" style="paint-order:markers stroke fill"/>
 <circle transform="rotate(90)" cx="47.484" cy="-63.163" r=".4867" fill="#fd5" style="paint-order:markers stroke fill"/>
 <circle transform="rotate(90)" cx="62.152" cy="-102.92" r=".48674" fill="#fd5" style="paint-order:markers stroke fill"/>
 <circle transform="rotate(90)" cx="59.219" cy="-102.92" r=".48674" fill="#fd5" style="paint-order:markers stroke fill"/>
 <circle transform="rotate(90)" cx="56.285" cy="-102.92" r=".48674" fill="#fd5" style="paint-order:markers stroke fill"/>
 <circle transform="rotate(90)" cx="53.351" cy="-102.92" r=".48674" fill="#fd5" style="paint-order:markers stroke fill"/>
 <circle transform="rotate(90)" cx="50.418" cy="-102.92" r=".48674" fill="#fd5" style="paint-order:markers stroke fill"/>
 <circle transform="rotate(90)" cx="47.484" cy="-102.92" r=".4867" fill="#fd5" style="paint-order:markers stroke fill"/>
 <circle transform="rotate(-90)" cx="-65.086" cy="114.58" r=".48674" fill="#fd5" style="paint-order:markers stroke fill"/>
 <circle transform="rotate(-90)" cx="-68.075" cy="114.58" r=".48674" fill="#fd5" style="paint-order:markers stroke fill"/>
 <circle transform="rotate(-90)" cx="-74.052" cy="51.433" r="1.3187" fill="#fd5" style="paint-order:markers stroke fill"/>
 <circle transform="rotate(-90)" cx="-65.086" cy="51.433" r=".48674" fill="#fd5" style="paint-order:markers stroke fill"/>
 <circle transform="rotate(-90)" cx="-68.075" cy="51.433" r=".48674" fill="#fd5" style="paint-order:markers stroke fill"/>
 <circle transform="rotate(-90)" cx="-77.041" cy="51.433" r=".48674" fill="#fd5" style="paint-order:markers stroke fill"/>
 <circle cx="111.95" cy="77.041" r=".48674" fill="#fd5" style="paint-order:markers stroke fill"/>
 <circle cx="109.32" cy="77.041" r=".48674" fill="#fd5" style="paint-order:markers stroke fill"/>
 <circle cx="106.69" cy="77.041" r=".48674" fill="#fd5" style="paint-order:markers stroke fill"/>
 <circle cx="104.05" cy="77.041" r=".48674" fill="#fd5" style="paint-order:markers stroke fill"/>
 <circle cx="101.42" cy="77.041" r=".48674" fill="#fd5" style="paint-order:markers stroke fill"/>
 <circle cx="98.792" cy="77.041" r=".48674" fill="#fd5" style="paint-order:markers stroke fill"/>
 <circle cx="96.161" cy="77.041" r=".48674" fill="#fd5" style="paint-order:markers stroke fill"/>
 <circle cx="93.53" cy="77.041" r=".48674" fill="#fd5" style="paint-order:markers stroke fill"/>
 <circle cx="90.899" cy="77.041" r=".48674" fill="#fd5" style="paint-order:markers stroke fill"/>
 <circle cx="88.268" cy="77.041" r=".48674" fill="#fd5" style="paint-order:markers stroke fill"/>
 <circle cx="85.637" cy="77.041" r=".48674" fill="#fd5" style="paint-order:markers stroke fill"/>
 <circle cx="83.006" cy="77.041" r=".48674" fill="#fd5" style="paint-order:markers stroke fill"/>
 <circle cx="80.375" cy="77.041" r=".48674" fill="#fd5" style="paint-order:markers stroke fill"/>
 <circle cx="77.744" cy="77.041" r=".48674" fill="#fd5" style="paint-order:markers stroke fill"/>
 <circle cx="75.113" cy="77.041" r=".48674" fill="#fd5" style="paint-order:markers stroke fill"/>
 <circle cx="72.482" cy="77.041" r=".48674" fill="#fd5" style="paint-order:markers stroke fill"/>
 <circle cx="69.851" cy="77.041" r=".48674" fill="#fd5" style="paint-order:markers stroke fill"/>
 <circle cx="67.219" cy="77.041" r=".48674" fill="#fd5" style="paint-order:markers stroke fill"/>
 <circle cx="64.588" cy="77.041" r=".48674" fill="#fd5" style="paint-order:markers stroke fill"/>
 <circle cx="61.957" cy="77.041" r=".48674" fill="#fd5" style="paint-order:markers stroke fill"/>
 <circle cx="59.326" cy="77.041" r=".48674" fill="#fd5" style="paint-order:markers stroke fill"/>
 <circle cx="56.695" cy="77.041" r=".48674" fill="#fd5" style="paint-order:markers stroke fill"/>
 <circle cx="54.064" cy="77.041" r=".48674" fill="#fd5" style="paint-order:markers stroke fill"/>
 <circle transform="rotate(90)" cx="68.075" cy="-63.163" r=".48674" fill="#fd5" style="paint-order:markers stroke fill"/>
 <circle transform="rotate(90)" cx="65.086" cy="-63.163" r=".48674" fill="#fd5" style="paint-order:markers stroke fill"/>
 <circle transform="rotate(90)" cx="65.086" cy="-102.92" r=".48674" fill="#fd5" style="paint-order:markers stroke fill"/>
 <circle transform="rotate(-90)" cx="-71.064" cy="51.433" r=".48674" fill="#fd5" style="paint-order:markers stroke fill"/>
 <circle transform="rotate(90)" cx="71.064" cy="-63.163" r=".48674" fill="#fd5" style="paint-order:markers stroke fill"/>
 <circle cx="60.23" cy="71.064" r=".48674" fill="#fd5" style="paint-order:markers stroke fill"/>
 <circle cx="57.298" cy="71.064" r=".48674" fill="#fd5" style="paint-order:markers stroke fill"/>
 <circle cx="54.365" cy="71.064" r=".48674" fill="#fd5" style="paint-order:markers stroke fill"/>
 <circle cx="60.23" cy="65.086" r=".48674" fill="#fd5" style="paint-order:markers stroke fill"/>
 <circle cx="57.298" cy="65.086" r=".48674" fill="#fd5" style="paint-order:markers stroke fill"/>
 <circle cx="54.365" cy="65.086" r=".48674" fill="#fd5" style="paint-order:markers stroke fill"/>
 <circle transform="rotate(-90)" cx="-71.064" cy="102.85" r=".48674" fill="#fd5" style="paint-order:markers stroke fill"/>
 <circle cx="111.65" cy="71.064" r=".48674" fill="#fd5" style="paint-order:markers stroke fill"/>
 <circle cx="108.71" cy="71.064" r=".48674" fill="#fd5" style="paint-order:markers stroke fill"/>
 <circle cx="105.78" cy="71.064" r=".48674" fill="#fd5" style="paint-order:markers stroke fill"/>
 <circle cx="111.65" cy="65.086" r=".48674" fill="#fd5" style="paint-order:markers stroke fill"/>
 <circle cx="108.71" cy="65.086" r=".48674" fill="#fd5" style="paint-order:markers stroke fill"/>
 <circle cx="105.78" cy="65.086" r=".48674" fill="#fd5" style="paint-order:markers stroke fill"/>
 <circle transform="rotate(-90)" cx="-68.075" cy="102.92" r=".48674" fill="#fd5" style="paint-order:markers stroke fill"/>
 <circle transform="rotate(-90)" cx="-71.064" cy="99.917" r=".48674" fill="#fd5" style="paint-order:markers stroke fill"/>
 <circle transform="rotate(-90)" cx="-71.064" cy="88.187" r=".48674" fill="#fd5" style="paint-order:markers stroke fill"/>
 <circle cx="96.985" cy="71.064" r=".48674" fill="#fd5" style="paint-order:markers stroke fill"/>
 <circle cx="94.052" cy="71.064" r=".48674" fill="#fd5" style="paint-order:markers stroke fill"/>
 <circle cx="91.12" cy="71.064" r=".48674" fill="#fd5" style="paint-order:markers stroke fill"/>
 <circle transform="rotate(-90)" cx="-71.064" cy="77.824" r=".48674" fill="#fd5" style="paint-order:markers stroke fill"/>
 <circle transform="rotate(-90)" cx="-71.064" cy="66.095" r=".48674" fill="#fd5" style="paint-order:markers stroke fill"/>
 <circle cx="74.892" cy="71.064" r=".48674" fill="#fd5" style="paint-order:markers stroke fill"/>
 <circle cx="71.96" cy="71.064" r=".48674" fill="#fd5" style="paint-order:markers stroke fill"/>
 <circle cx="69.027" cy="71.064" r=".48674" fill="#fd5" style="paint-order:markers stroke fill"/>
 <circle transform="rotate(-90)" cx="-77.041" cy="114.58" r=".48674" fill="#fd5" style="paint-order:markers stroke fill"/>
 <circle transform="rotate(-90)" cx="-71.064" cy="114.58" r=".48674" fill="#fd5" style="paint-order:markers stroke fill"/>
 <circle transform="rotate(-90)" cx="-74.052" cy="114.58" r="1.3187" fill="#fd5" style="paint-order:markers stroke fill"/>
 <circle transform="rotate(-90)" cx="-30.401" cy="64.63" r=".48674" fill="#fd5" style="paint-order:markers stroke fill"/>
 <circle transform="rotate(-90)" cx="-35.438" cy="64.63" r=".48674" fill="#fd5" style="paint-order:markers stroke fill"/>
 <circle cx="101.43" cy="27.882" r=".48674" fill="#fd5" style="paint-order:markers stroke fill"/>
 <circle transform="rotate(-90)" cx="-30.401" cy="101.43" r=".48674" fill="#fd5" style="paint-order:markers stroke fill"/>
 <circle transform="rotate(-90)" cx="-35.438" cy="101.43" r=".48674" fill="#fd5" style="paint-order:markers stroke fill"/>
 <circle transform="rotate(-90)" cx="-32.92" cy="64.63" r=".48674" fill="#fd5" style="paint-order:markers stroke fill"/>
 <circle cx="83.032" cy="27.882" r=".48674" fill="#fd5" style="paint-order:markers stroke fill"/>
 <circle transform="rotate(-90)" cx="-32.92" cy="101.43" r=".48674" fill="#fd5" style="paint-order:markers stroke fill"/>
 <circle transform="rotate(-90)" cx="-30.401" cy="83.032" r=".48674" fill="#fd5" style="paint-order:markers stroke fill"/>
 <circle transform="rotate(-90)" cx="-35.438" cy="83.032" r=".48674" fill="#fd5" style="paint-order:markers stroke fill"/>
 <circle transform="rotate(-90)" cx="-32.92" cy="83.032" r=".48674" fill="#fd5" style="paint-order:markers stroke fill"/>
 <circle transform="rotate(-90)" cx="-71.064" cy="80.375" r=".48674" fill="#fd5" style="paint-order:markers stroke fill"/>
 <circle transform="rotate(-90)" cx="-71.064" cy="85.637" r=".48674" fill="#fd5" style="paint-order:markers stroke fill"/>
 <circle transform="rotate(-90)" cx="-74.052" cy="85.637" r=".48674" fill="#fd5" style="paint-order:markers stroke fill"/>
 <circle transform="rotate(-90)" cx="-74.052" cy="80.375" r=".48674" fill="#fd5" style="paint-order:markers stroke fill"/>
 <path d="m96.85 66.329a2.058 2.058 0 0 0 0.95886 -2.3149 2.058 2.058 0 0 0 -1.9879 -1.5253 2.058 2.058 0 0 0 -1.9879 1.5253 2.058 2.058 0 0 0 0.95886 2.3149l1.029-1.7823z" fill="#ff0" style="paint-order:markers stroke fill"/>
 <path d="m75.958 58.031c-1.2146 0-2.1924 0.97786-2.1924 2.1924v1.6012c0.1806-2e-3 -0.18165 2e-3 0 0s0.90721-1.0308 1.0897-1.0316c0.18246-8e-4 0.36527 1.0196 0.5483 1.0196 0.18303-2.8e-4 0.36628-1.0215 0.54964-1.0214 0.18335 1.4e-4 0.36681 1.0217 0.55024 1.022 0.18343 3.7e-4 0.36684-1.0204 0.55011-1.0196 0.18327 4.3e-4 0.91404 1.0225 1.0969 1.0225 0.18286 3e-4 -0.1822 0 0 0v-1.5929c0-1.2146-0.97787-2.1924-2.1924-2.1924z" fill="#f59" style="paint-order:markers stroke fill"/>
 <circle cx="76.839" cy="59.455" r=".6371" fill="#fff" style="paint-order:markers stroke fill"/>
 <circle cx="76.839" cy="59.164" r=".3456" fill="#00a" style="paint-order:markers stroke fill"/>
 <circle cx="75.077" cy="59.455" r=".6371" fill="#fff" style="paint-order:markers stroke fill"/>
 <circle cx="75.077" cy="59.164" r=".3456" fill="#00a" style="paint-order:markers stroke fill"/>
 <path d="m83.047 58.031c-1.2146 0-2.1924 0.97786-2.1924 2.1924v1.6012c0.1806-2e-3 -0.18165 2e-3 0 0s0.90721-1.0308 1.0897-1.0316c0.18246-8e-4 0.36527 1.0196 0.5483 1.0196 0.18303-2.8e-4 0.36628-1.0215 0.54964-1.0214 0.18335 1.4e-4 0.36681 1.0217 0.55024 1.022 0.18343 3.7e-4 0.36684-1.0204 0.55011-1.0196 0.18327 4.3e-4 0.91404 1.0225 1.0969 1.0225 0.18286 3e-4 -0.1822 0 0 0v-1.5929c0-1.2146-0.97787-2.1924-2.1924-2.1924z" fill="#b7bec8" style="paint-order:markers stroke fill"/>
 <circle cx="83.928" cy="59.455" r=".6371" fill="#fff" style="paint-order:markers stroke fill"/>
 <circle cx="83.928" cy="59.455" r=".3456" fill="#00a" style="paint-order:markers stroke fill"/>
 <circle cx="82.166" cy="59.455" r=".6371" fill="#fff" style="paint-order:markers stroke fill"/>
 <circle cx="82.166" cy="59.455" r=".3456" fill="#00a" style="paint-order:markers stroke fill"/>
 <path d="m90.136 58.031c-1.2146 0-2.1924 0.97786-2.1924 2.1924v1.6012c0.1806-2e-3 -0.18165 2e-3 0 0s0.90721-1.0308 1.0897-1.0316 0.36527 1.0196 0.5483 1.0196c0.18303-2.8e-4 0.36628-1.0215 0.54964-1.0214 0.18335 1.3e-4 0.36681 1.0217 0.55024 1.022 0.18343 3.7e-4 0.36684-1.0204 0.55011-1.0196 0.18327 4.3e-4 0.91404 1.0225 1.0969 1.0225 0.18286 3.1e-4 -0.1822 0 0 0v-1.5929c0-1.2146-0.97787-2.1924-2.1924-2.1924z" fill="#ff7f2a" style="paint-order:markers stroke fill"/>
 <circle cx="91.017" cy="59.455" r=".6371" fill="#fff" style="paint-order:markers stroke fill"/>
 <circle cx="91.017" cy="59.164" r=".3456" fill="#00a" style="paint-order:markers stroke fill"/>
 <circle cx="89.256" cy="59.455" r=".6371" fill="#fff" style="paint-order:markers stroke fill"/>
 <circle cx="89.256" cy="59.164" r=".3456" fill="#00a" style="paint-order:markers stroke fill"/>
 <path d="m91.233 52.407c-1.2146 0-2.1924 0.97786-2.1924 2.1924v1.6012c0.1806-2e-3 -0.18165 2e-3 0 0s0.90721-1.0308 1.0897-1.0316 0.36527 1.0196 0.5483 1.0196c0.18303-2.8e-4 0.36628-1.0215 0.54964-1.0214 0.18335 1.4e-4 0.36681 1.0217 0.55024 1.022 0.18343 3.7e-4 0.36684-1.0204 0.55011-1.0196 0.18327 4.3e-4 0.91404 1.0225 1.0969 1.0225 0.18286 3e-4 -0.1822 0 0 0v-1.5929c0-1.2146-0.97787-2.1924-2.1924-2.1924z" fill="#f00" style="paint-order:markers stroke fill"/>
 <circle cx="92.114" cy="53.831" r=".6371" fill="#fff" style="paint-order:markers stroke fill"/>
 <circle cx="92.405" cy="53.831" r=".3456" fill="#00a" style="paint-order:markers stroke fill"/>
 <circle cx="90.353" cy="53.831" r=".6371" fill="#fff" style="paint-order:markers stroke fill"/>
 <circle cx="90.644" cy="53.831" r=".3456" fill="#00a" style="paint-order:markers stroke fill"/>
 <path d="m63.629 82.323a2.058 2.058 0 0 0 2.3149 0.95887 2.058 2.058 0 0 0 1.5253 -1.9879 2.058 2.058 0 0 0 -1.5253 -1.9878 2.058 2.058 0 0 0 -2.3149 0.95887l1.7823 1.029z" fill="#ff0" style="paint-order:markers stroke fill"/>
 <path d="m58.765 82.323a2.058 2.058 0 0 0 2.3149 0.95887 2.058 2.058 0 0 0 1.5253 -1.9879 2.058 2.058 0 0 0 -1.5253 -1.9878 2.058 2.058 0 0 0 -2.3149 0.95887l1.7823 1.029z" fill="#ff0" style="paint-order:markers stroke fill"/>
 <path d="m53.901 82.323a2.058 2.058 0 0 0 2.3149 0.95887 2.058 2.058 0 0 0 1.5253 -1.9879 2.058 2.058 0 0 0 -1.5253 -1.9878 2.058 2.058 0 0 0 -2.3149 0.95887l1.7823 1.029z" fill="#ff0" style="paint-order:markers stroke fill"/>
 <ellipse transform="rotate(23.814)" cx="133.5" cy="30.666" rx="1.0583" ry="1.0914" fill="#f00" style="paint-order:markers stroke fill"/>
 <path d="m109.11 81.392a0.8599 0.88677 23.814 0 0 -0.13706 0.21968 0.8599 0.88677 23.814 0 0 0.42865 1.1585 0.8599 0.88677 23.814 0 0 0.24142 0.0648 1.4221 1.4666 23.814 0 1 -0.53301 -1.4429z" fill="#fff" style="paint-order:markers stroke fill"/>
 <path d="m109.92 81.623s-0.12737-0.89795 0.47213-1.0698c1.4047-0.40257 1.2928-1.4233 1.2928-1.4233" fill="none" stroke="#00c800" stroke-linecap="round" stroke-width=".26458"/>
 <path d="m110.69 81.416a1.1327 1.1681 0 0 0 -0.71313 1.0847 1.1327 1.1681 0 0 0 0.10387 0.48525 1.0583 1.0914 23.814 0 0 0.64647 -0.59893 1.0583 1.0914 23.814 0 0 -0.0372 -0.971z" opacity=".5" style="paint-order:markers stroke fill"/>
 <ellipse cx="111.11" cy="82.5" rx="1.0583" ry="1.0914" fill="#f00" style="paint-order:markers stroke fill"/>
 <path d="m110.28 82.244a0.8599 0.88677 0 0 0 -0.0367 0.25632 0.8599 0.88677 0 0 0 0.8599 0.88676 0.8599 0.88677 0 0 0 0.24701 -0.0382 1.4221 1.4666 0 0 1 -1.0702 -1.1048z" fill="#fff" style="paint-order:markers stroke fill"/>
 <path d="m111.12 82.126s-0.47909-0.77007 0-1.1693c1.1225-0.93545 0.60804-1.8241 0.60804-1.8241" fill="none" stroke="#00c800" stroke-linecap="round" stroke-width=".26458"/>
 <circle cx="96.177" cy="41.254" r=".48674" fill="#fd5" style="paint-order:markers stroke fill"/>
 <circle cx="69.888" cy="41.254" r=".48674" fill="#fd5" style="paint-order:markers stroke fill"/>
 <g transform="translate(93.859 -96.204)" fill="#fd5">
  <circle transform="rotate(-90)" cx="-136.36" cy="9.058" r=".48674" style="paint-order:markers stroke fill"/>
  <circle transform="rotate(-90)" cx="-138.56" cy="9.058" r=".48674" style="paint-order:markers stroke fill"/>
 </g>
 <circle cx="63.163" cy="44.551" r=".48674" fill="#fd5" style="paint-order:markers stroke fill"/>
 <g transform="translate(54.104 -96.204)" fill="#fd5">
  <circle transform="rotate(-90)" cx="-136.36" cy="9.058" r=".48674" style="paint-order:markers stroke fill"/>
  <circle transform="rotate(-90)" cx="-138.56" cy="9.058" r=".48674" style="paint-order:markers stroke fill"/>
 </g>
</svg>
