<?xml version="1.0" encoding="UTF-8"?>
<svg viewBox="0 0 588.30859 959.73712" xmlns="http://www.w3.org/2000/svg">
 <defs>
  <radialGradient id="a" cx="105.6" cy="258.6" r="276.44" gradientTransform="matrix(1.379 2.3016 -1.042 .62432 251.42 -224.37)" gradientUnits="userSpaceOnUse">
   <stop stop-color="#989898" offset="0"/>
   <stop stop-color="#717171" offset=".54341"/>
   <stop stop-color="#3f3f3f" offset="1"/>
  </radialGradient>
 </defs>
 <g transform="translate(745.44 -1.4936)">
  <path d="m-744.49 1.2828h570.22v936.78h-570.22z"/>
  <path transform="translate(-745.44 1.4936)" d="m30.156 3.7188c-11.316 0-20.438 9.1216-20.438 20.438v22.281h44.156v-42h6v42h465.41v-42.688h6v42.688h31.312v-22.281c0-11.316-9.1216-20.438-20.438-20.438h-512zm-20.438 48.719v855.16c0 11.316 9.1216 20.406 20.438 20.406h343.84c29.966-2.7307 60.833-0.50331 89.938-8.1875 25.169-6.645 50.859-15.92 71.156-32.219 11.923-9.5741 19.851-18.407 27.5-36.719v-798.44h-552.88zm64 24.719h442.06c8.8647 0 16 7.1353 16 16v255.5c0 1.3345-0.19499 2.6373-0.5 3.875v21.75c0 37.207-29.949 67.156-67.156 67.156h-390.41c-11.232 0-20.281-9.0495-20.281-20.281v-323.75c0-11.232 9.0495-20.25 20.281-20.25zm77.812 43.375c-5.078 0-9.1562 4.0782-9.1562 9.1562v258.44c0 5.078 4.0782 9.1875 9.1562 9.1875h282.72c5.078 0 9.1562-4.1095 9.1562-9.1875v-258.44c0-5.078-4.0782-9.1562-9.1562-9.1562h-282.72zm-62.688 87.625c-4.182 0-7.5938 3.3805-7.5938 7.5625s3.4117 7.5938 7.5938 7.5938 7.5625-3.4117 7.5625-7.5938-3.3805-7.5625-7.5625-7.5625zm13.188 356.81h45.562c1.7203 0 3.125 1.4047 3.125 3.125v41.219h41.219c1.7203 0 3.0938 1.3734 3.0938 3.0938v45.562c0 1.7203-1.3734 3.0937-3.0938 3.0938h-41.219v41.219c0 1.7203-1.4047 3.0937-3.125 3.0938h-45.562c-1.7203 0-3.0938-1.3735-3.0938-3.0938v-41.219h-41.219c-1.7203 0-3.0938-1.3735-3.0938-3.0938v-45.562c0-1.7203 1.3734-3.0938 3.0938-3.0938h41.219v-41.219c0-1.7203 1.3734-3.125 3.0938-3.125zm397.94 5.0625c18.958-3e-5 34.344 15.385 34.344 34.344s-15.385 34.344-34.344 34.344-34.344-15.385-34.344-34.344 15.385-34.344 34.344-34.344zm-93.938 42.438c18.958-2e-5 34.344 15.385 34.344 34.344s-15.385 34.344-34.344 34.344-34.344-15.385-34.344-34.344 15.385-34.344 34.344-34.344zm-166.84 136.62c3.9478-0.08131 7.4244 2.5738 8.375 6.4062s-0.87809 7.8206-4.4062 9.5938l-48.906 25.344c-2.6872 1.4644-5.9414 1.3804-8.5312-0.25s-4.0962-4.5375-3.9375-7.5938 1.9427-5.8028 4.6875-7.1562l48.938-25.344c1.1649-0.62444 2.46-0.96696 3.7812-1zm96.25 0.53125c3.9478-0.08131 7.4244 2.5738 8.375 6.4062s-0.87809 7.8206-4.4062 9.5938l-48.906 25.344c-2.6872 1.4644-5.9414 1.3804-8.5312-0.25s-4.0962-4.5375-3.9375-7.5938 1.9427-5.8028 4.6875-7.1562l48.938-25.344c1.1649-0.62444 2.46-0.96696 3.7812-1zm169.31 3.6875c2.2729-0.10026 4.4099 1.0829 5.5312 3.0625l40.375 68.906c1.6914 2.8909 0.73461 6.6211-2.1562 8.3125s-6.6211 0.70335-8.3125-2.1875l-40.344-68.938c-1.0952-1.826-1.1619-4.092-0.15625-5.9688s2.9356-3.0881 5.0625-3.1875zm-27.281 16c2.2729-0.10026 4.4099 1.0829 5.5312 3.0625l40.375 68.906c1.6914 2.8822 0.72599 6.5899-2.1562 8.2812s-6.5899 0.72597-8.2812-2.1562l-40.375-68.938c-1.0952-1.826-1.1619-4.092-0.15625-5.9688s2.9356-3.0881 5.0625-3.1875zm-27.781 15.312c2.2729-0.10026 4.4099 1.0829 5.5312 3.0625l40.375 68.906c1.6914 2.8822 0.72599 6.5899-2.1562 8.2812s-6.5899 0.72597-8.2812-2.1562l-40.375-68.938c-1.0952-1.826-1.1619-4.092-0.15625-5.9688s2.9356-3.0881 5.0625-3.1875zm-28.844 15.469c2.2729-0.10026 4.4099 1.0829 5.5312 3.0625l40.375 68.938c1.6914 2.8822 0.72599 6.5899-2.1562 8.2812s-6.5899 0.72597-8.2812-2.1562l-40.375-68.938c-1.1109-1.8277-1.1638-4.1133-0.15625-6s2.9257-3.0941 5.0625-3.1875zm-28.844 14.062c2.2729-0.10026 4.4099 1.0829 5.5312 3.0625l40.375 68.906c1.6914 2.8822 0.72599 6.5899-2.1562 8.2812s-6.5899 0.72597-8.2812-2.1562l-40.375-68.938c-1.0952-1.826-1.1619-4.092-0.15625-5.9688s2.9356-3.0881 5.0625-3.1875zm-27.125 16.781c2.2729-0.10026 4.4099 1.0829 5.5312 3.0625l40.344 68.938c1.221 1.8705 1.3251 4.2608 0.25 6.2188s-3.1414 3.1826-5.375 3.1562-4.2839-1.2985-5.3125-3.2812l-40.344-68.938c-1.0952-1.826-1.1619-4.092-0.15625-5.9688s2.9356-3.0881 5.0625-3.1875z" fill="url(#a)"/>
 </g>
</svg>
